<svg display="none" xmlns="http://www.w3.org/2000/svg">

<symbol id="arrow" viewBox="0 0 512 512">
	<g>
	<path d="M256,0C114.609,0,0,114.609,0,256c0,141.391,114.609,256,256,256c141.391,0,256-114.609,256-256
		C512,114.609,397.391,0,256,0z M256,472c-119.297,0-216-96.703-216-216S136.703,40,256,40s216,96.703,216,216S375.297,472,256,472z
		"/>
	<path d="M353.661,237.879l-154.174-89.594c-16.844-9.969-32.987-1.938-32.987,17.844v179.766c0,19.75,16.143,27.797,32.987,17.812
		l152.956-89.578C369.348,264.16,370.552,247.848,353.661,237.879z"/>
</g>
</symbol>

<symbol id="openmenu" viewBox="0 0 32 32">
	<defs>
	<style>.cls-1{fill:#101820;}
	</style>
	</defs>
	<title/>
	<path class="cls-1" d="M30,15a1,1,0,0,1-.58-.19L16,5.23,2.58,14.81a1,1,0,0,1-1.16-1.62l14-10a1,1,0,0,1,1.16,0l14,10A1,1,0,0,1,30,15Z"/>
	<path class="cls-1" d="M5,9A1,1,0,0,1,4,8V4A1,1,0,0,1,5,3H9A1,1,0,0,1,9,5H6V8A1,1,0,0,1,5,9Z"/>
	<path class="cls-1" d="M25,29H20a1,1,0,0,1-1-1V21H13v7a1,1,0,0,1-1,1H7a3,3,0,0,1-3-3V16a1,1,0,0,1,2,0V26a1,1,0,0,0,1,1h4V20a1,1,0,0,1,1-1h8a1,1,0,0,1,1,1v7h4a1,1,0,0,0,1-1V16a1,1,0,0,1,2,0V26A3,3,0,0,1,25,29Z"/>
</symbol>

<symbol id="closemenu" viewBox="0 0 512 512">
	<style type="text/css">
		.st0{fill:#fff;}
	</style>
	<path class="st0" d="M284.3,245.1l110.9-110.9c7.8-7.8,7.8-20.5,0-28.3s-20.5-7.8-28.3,0L256,216.8L145.1,105.9  c-7.8-7.8-20.5-7.8-28.3,0s-7.8,20.5,0,28.3l110.9,110.9L116.9,355.9c-7.8,7.8-7.8,20.5,0,28.3c3.9,3.9,9,5.9,14.1,5.9  c5.1,0,10.2-2,14.1-5.9L256,273.3l110.9,110.9c3.9,3.9,9,5.9,14.1,5.9s10.2-2,14.1-5.9c7.8-7.8,7.8-20.5,0-28.3L284.3,245.1z"/>
</symbol>

</svg>