<?xml version="1.0" standalone="no"?>
<!DOCTYPE svg PUBLIC "-//W3C//DTD SVG 1.1//EN" "http://www.w3.org/Graphics/SVG/1.1/DTD/svg11.dtd" >
<svg xmlns="http://www.w3.org/2000/svg" xmlns:xlink="http://www.w3.org/1999/xlink" version="1.1">
<metadata>
Created by FontForge 20170731 at Thu Apr 29 20:11:51 2004
 By Aleksey,,,
Digitized data (c) 1997-2003 Agfa Monotype Corporation. All rights reserved. SegoeTM is a trademark of The Monotype Corporation.
</metadata>
<defs>
<font id="SegoeMediaCenter-Semibold" horiz-adv-x="1143" >
  <font-face 
    font-family="Segoe Media Center Semibold"
    font-weight="600"
    font-stretch="normal"
    units-per-em="2048"
    panose-1="2 11 7 2 4 2 0 2 2 3"
    ascent="1638"
    descent="-410"
    x-height="1024"
    cap-height="1434"
    bbox="-266 -483 2437 1892"
    underline-thickness="119"
    underline-position="-414"
    unicode-range="U+000D-FB02"
  />
<missing-glyph horiz-adv-x="1322" 
d="M166 0v1398h990v-1398h-990zM314 148h694v1102h-694v-1102z" />
    <glyph glyph-name=".notdef" horiz-adv-x="1322" 
d="M166 0v1398h990v-1398h-990zM314 148h694v1102h-694v-1102z" />
    <glyph glyph-name=".null" horiz-adv-x="0" 
d="M0 0z" />
    <glyph glyph-name="nonmarkingreturn" unicode="&#xd;" horiz-adv-x="563" 
d="M0 0z" />
    <glyph glyph-name="space" unicode=" " horiz-adv-x="563" 
d="M0 0z" />
    <glyph glyph-name="exclam" unicode="!" horiz-adv-x="610" 
d="M398 418h-188l-27 1016h242zM305 -20q-61 0 -102 41t-41 96q0 58 41.5 97.5t101.5 39.5q61 0 101 -41t40 -96q0 -56 -39 -96.5t-102 -40.5z" />
    <glyph glyph-name="quotedbl" unicode="&#x22;" horiz-adv-x="874" 
d="M680 995h-156l-16 445h188zM350 995h-156l-16 445h188z" />
    <glyph glyph-name="numbersign" unicode="#" horiz-adv-x="1204" 
d="M1145 907h-234l-55 -268h254l-33 -137h-250l-84 -381h-163l82 381h-238l-82 -381h-162l80 381h-233l26 137h236l55 268h-248l25 140h250l82 385h165l-79 -385h237l82 385h160l-78 -385h234zM508 907l-57 -268h241l58 268h-242z" />
    <glyph glyph-name="dollar" unicode="$" 
d="M649 10v-219h-125v209q-230 7 -362 92v227q138 -117 362 -131v439q-220 89 -297 186t-77 236q0 147 103.5 256.5t270.5 130.5v182h125v-176q194 -11 289 -66v-219q-121 86 -289 98v-456q209 -85 297 -183.5t88 -230.5q0 -157 -96.5 -250.5t-288.5 -124.5zM524 1249
q-78 -19 -116.5 -63.5t-38.5 -114.5q0 -83 40.5 -130t114.5 -85v393zM649 573v-376q83 17 124.5 60.5t41.5 113.5q0 60 -41.5 110.5t-124.5 91.5z" />
    <glyph glyph-name="percent" unicode="%" horiz-adv-x="1729" 
d="M410 709q-148 0 -238 96.5t-90 259.5q0 178 95.5 283.5t256.5 105.5q155 0 240.5 -93.5t85.5 -266.5q0 -176 -96.5 -280.5t-253.5 -104.5zM426 1313q-77 0 -124.5 -60t-47.5 -176q0 -109 45 -168t123 -59q77 0 122.5 60t45.5 175q0 109 -44.5 168.5t-119.5 59.5zM487 0
h-188l943 1434h188zM1296 -20q-145 0 -236 96.5t-91 259.5q0 180 96 284.5t256 104.5q155 0 240.5 -93.5t85.5 -266.5q0 -176 -97 -280.5t-254 -104.5zM1313 584q-78 0 -125 -60t-47 -176q0 -115 47 -171t121 -56q77 0 123.5 60t46.5 177q0 110 -46 168t-120 58z" />
    <glyph glyph-name="ampersand" unicode="&#x26;" horiz-adv-x="1466" 
d="M1155 0l-129 135q-97 -80 -211.5 -120t-245.5 -40q-219 0 -343 110t-124 280q0 123 81.5 226.5t244.5 188.5q-75 92 -112 175.5t-37 158.5q0 151 111.5 247.5t285.5 96.5q169 0 266.5 -89t97.5 -218t-67 -214.5t-240 -172.5l322 -340q49 72 73.5 156.5t24.5 181.5h201
q0 -138 -44 -257t-132 -220l272 -285h-295zM623 881q107 52 161 115t54 137q0 65 -48 111t-110 46q-87 0 -137.5 -46.5t-50.5 -127.5q0 -48 32.5 -106.5t98.5 -128.5zM905 266l-364 389q-105 -54 -157 -123t-52 -153q0 -103 72 -163t171 -60q100 0 182.5 27.5t147.5 82.5z
" />
    <glyph glyph-name="quotesingle" unicode="'" horiz-adv-x="520" 
d="M338 995h-156l-16 445h188z" />
    <glyph glyph-name="parenleft" unicode="(" horiz-adv-x="676" 
d="M460 -326q-160 177 -239.5 395.5t-79.5 479.5q0 255 79.5 476.5t239.5 408.5h196q-156 -195 -233 -416t-77 -469q0 -246 77 -464.5t233 -410.5h-196z" />
    <glyph glyph-name="parenright" unicode=")" horiz-adv-x="676" 
d="M219 -326h-197q155 190 232.5 408.5t77.5 466.5q0 250 -77.5 471.5t-232.5 413.5h197q158 -187 237 -408.5t79 -476.5q0 -259 -79 -477.5t-237 -397.5z" />
    <glyph glyph-name="asterisk" unicode="*" horiz-adv-x="887" 
d="M545 1036l188 -225l-143 -98l-146 256l-143 -256l-145 98l190 225l-270 45l59 162l250 -102l-31 293h181l-31 -293l250 102l59 -162z" />
    <glyph glyph-name="plus" unicode="+" horiz-adv-x="1438" 
d="M805 510v-395h-170v395h-395v168h395v395h170v-395h395v-168h-395z" />
    <glyph glyph-name="comma" unicode="," horiz-adv-x="479" 
d="M205 -266h-168l102 502h217z" />
    <glyph glyph-name="hyphen" unicode="-" horiz-adv-x="823" 
d="M141 469v170h547v-170h-547z" />
    <glyph glyph-name="hyphen" unicode="&#xad;" horiz-adv-x="823" 
d="M141 469v170h547v-170h-547z" />
    <glyph glyph-name="period" unicode="." horiz-adv-x="479" 
d="M238 -25q-60 0 -102 41.5t-42 96.5q0 59 43 99t103 40t101.5 -40.5t41.5 -98.5q0 -57 -40.5 -97.5t-104.5 -40.5z" />
    <glyph glyph-name="slash" unicode="/" horiz-adv-x="850" 
d="M178 -238h-213l688 1672h213z" />
    <glyph glyph-name="zero" unicode="0" 
d="M559 -25q-231 0 -356 183.5t-125 531.5q0 380 132.5 574t379.5 194q237 0 356 -183.5t119 -549.5q0 -363 -133.5 -556.5t-372.5 -193.5zM829 709q0 287 -60 424t-189 137q-134 0 -200.5 -143.5t-66.5 -430.5q0 -266 65.5 -399t196.5 -133q126 0 189.5 136t64.5 409z" />
    <glyph glyph-name="one" unicode="1" 
d="M176 0v195h316v995l-320 -80v207l551 141v-1263h313v-195h-860z" />
    <glyph glyph-name="two" unicode="2" 
d="M104 0v190l424 414q134 131 197 223.5t63 208.5q0 105 -63 167.5t-182 62.5q-190 0 -367 -162v225q178 129 410 129q204 0 320 -107t116 -290q0 -141 -80 -272.5t-246 -286.5l-315 -295v-4h627v-203h-904z" />
    <glyph glyph-name="three" unicode="3" 
d="M141 53v228q149 -117 340 -117q134 0 214.5 64.5t80.5 174.5q0 116 -94 178t-268 62h-125v191h119q154 0 236.5 58.5t82.5 166.5q0 99 -64 155t-184 56q-147 0 -284 -103v211q148 80 344 80q195 0 309.5 -98.5t114.5 -251.5q0 -139 -71.5 -228t-213.5 -128v-4
q159 -19 247.5 -111.5t88.5 -226.5q0 -194 -143.5 -314.5t-387.5 -120.5q-214 0 -342 78z" />
    <glyph glyph-name="four" unicode="4" 
d="M903 350v-350h-225v350h-660v146l619 938h266v-908h178v-176h-178zM678 1075q0 54 6 150h-4q-32 -83 -55 -119l-381 -580h434v549z" />
    <glyph glyph-name="five" unicode="5" 
d="M166 39v223q150 -98 311 -98q140 0 222.5 74.5t82.5 197.5q0 117 -88 186.5t-250 69.5q-53 0 -132 -6l-101 -8v756h743v-201h-530v-352q47 4 111 4q228 0 355.5 -119t127.5 -315q0 -210 -142.5 -343t-388.5 -133q-191 0 -321 64z" />
    <glyph glyph-name="six" unicode="6" 
d="M971 1417v-209q-119 62 -242 62q-172 0 -279.5 -144t-109.5 -395h6q103 174 309 174q189 0 299.5 -120t110.5 -324q0 -212 -133.5 -349t-337.5 -137q-225 0 -358.5 173t-133.5 487q0 381 172 602t443 221q164 0 254 -41zM594 719q-109 0 -176.5 -72.5t-67.5 -177.5
q0 -122 67 -212.5t179 -90.5q109 0 172 76.5t63 199.5q0 131 -61.5 204t-175.5 73z" />
    <glyph glyph-name="seven" unicode="7" 
d="M508 0h-244l522 1233h-698v201h965v-88z" />
    <glyph glyph-name="eight" unicode="8" 
d="M391 752v4q-125 55 -187.5 139.5t-62.5 198.5q0 160 126 262t321 102q185 0 302.5 -97t117.5 -247q0 -116 -65 -205.5t-195 -152.5v-4q146 -50 225.5 -150t79.5 -227q0 -185 -134 -292.5t-374 -107.5q-197 0 -325 107t-128 278q0 135 74.5 233t224.5 159zM575 846
q101 43 152 104t51 140q0 87 -55.5 135.5t-142.5 48.5q-88 0 -147.5 -52t-59.5 -132t50.5 -141t151.5 -103zM563 651q-121 -47 -181 -116.5t-60 -161.5q0 -93 71.5 -153t184.5 -60q107 0 176 57.5t69 149.5q0 96 -65 167t-195 117z" />
    <glyph glyph-name="nine" unicode="9" 
d="M166 29v209q127 -74 272 -74q176 0 275.5 134t99.5 380h-2q-2 0 -2 2q-99 -158 -299 -158q-184 0 -304 124t-120 323q0 218 136.5 353.5t346.5 135.5q222 0 350 -171.5t128 -491.5q0 -396 -161.5 -608t-439.5 -212q-155 0 -280 54zM805 948q0 142 -69.5 231t-178.5 89
q-100 0 -169 -77.5t-69 -197.5q0 -130 68 -205t184 -75q98 0 166 67.5t68 167.5z" />
    <glyph glyph-name="colon" unicode=":" horiz-adv-x="479" 
d="M238 770q-61 0 -102.5 41.5t-41.5 95.5q0 57 43 97t103 40q62 0 102.5 -40t40.5 -97t-40.5 -97t-104.5 -40zM238 -25q-60 0 -102 41.5t-42 96.5q0 59 43 99t103 40t101.5 -40.5t41.5 -98.5q0 -57 -40.5 -97.5t-104.5 -40.5z" />
    <glyph glyph-name="semicolon" unicode=";" horiz-adv-x="479" 
d="M240 770q-61 0 -102.5 41.5t-41.5 95.5q0 56 42 96.5t104 40.5t102.5 -40t40.5 -97t-40.5 -97t-104.5 -40zM205 -266h-168l102 502h217z" />
    <glyph glyph-name="semicolon" unicode="&#x37e;" horiz-adv-x="479" 
d="M240 770q-61 0 -102.5 41.5t-41.5 95.5q0 56 42 96.5t104 40.5t102.5 -40t40.5 -97t-40.5 -97t-104.5 -40zM205 -266h-168l102 502h217z" />
    <glyph glyph-name="less" unicode="&#x3c;" horiz-adv-x="1438" 
d="M274 542v108l891 446v-194l-641 -306l641 -306v-194z" />
    <glyph glyph-name="equal" unicode="=" horiz-adv-x="1438" 
d="M240 729v170h960v-170h-960zM240 289v170h960v-170h-960z" />
    <glyph glyph-name="greater" unicode="&#x3e;" horiz-adv-x="1438" 
d="M274 86v194l641 306l-641 306v194l891 -446v-108z" />
    <glyph glyph-name="question" unicode="?" horiz-adv-x="924" 
d="M498 414h-203v82q0 90 41 168t123 145q91 74 127.5 135.5t36.5 136.5q0 81 -57 134t-146 53q-163 0 -295 -135v237q145 92 326 92q183 0 289 -97.5t106 -258.5q0 -104 -48.5 -197.5t-144.5 -175.5q-99 -83 -127 -130.5t-28 -119.5v-69zM399 -20q-61 0 -103 40.5t-42 96.5
q0 57 42 97t103 40t101.5 -40.5t40.5 -96.5q0 -55 -40.5 -96t-101.5 -41z" />
    <glyph glyph-name="at" unicode="@" horiz-adv-x="1962" 
d="M1153 401h-4q-31 -104 -105 -162.5t-172 -58.5q-137 0 -221 101t-84 274q0 225 117.5 372.5t298.5 147.5q72 0 124.5 -34.5t66.5 -90.5h4l10 109h168q-1 -19 -5 -62q-40 -435 -40 -491q0 -91 24 -136.5t72 -45.5q92 0 156.5 112t64.5 289q0 250 -163.5 416t-456.5 166
q-285 0 -475.5 -202t-190.5 -501q0 -293 178.5 -470t476.5 -177q241 0 418 82v-156q-166 -71 -434 -71q-364 0 -591.5 217.5t-227.5 568.5q0 366 237.5 610t610.5 244q342 0 569 -197t227 -514q0 -253 -128.5 -408t-305.5 -155q-106 0 -162.5 60t-56.5 163zM993 932
q-108 0 -175.5 -114t-67.5 -267q0 -104 46 -165.5t119 -61.5q110 0 174 111t64 302q0 94 -44 144.5t-116 50.5z" />
    <glyph glyph-name="A" unicode="A" horiz-adv-x="1368" 
d="M1098 0l-131 362h-574l-125 -362h-260l543 1434h264l545 -1434h-262zM702 1116q-12 35 -20 103h-6q-6 -57 -21 -103l-196 -553h440z" />
    <glyph glyph-name="B" unicode="B" horiz-adv-x="1237" 
d="M182 0v1434h453q210 0 327 -90.5t117 -239.5q0 -115 -69.5 -204.5t-188.5 -127.5v-4q155 -21 240.5 -114t85.5 -236q0 -189 -140.5 -303.5t-355.5 -114.5h-469zM420 1237v-397h153q121 0 187.5 57t66.5 162q0 89 -63 133.5t-189 44.5h-155zM420 643v-446h201
q129 0 201.5 62t72.5 165q0 102 -74.5 160.5t-220.5 58.5h-180z" />
    <glyph glyph-name="C" unicode="C" horiz-adv-x="1272" 
d="M1180 61q-165 -86 -408 -86q-316 0 -502 195.5t-186 517.5q0 341 211.5 555.5t535.5 214.5q214 0 349 -59v-242q-155 90 -342 90q-222 0 -363 -147t-141 -398q0 -238 130.5 -377t346.5 -139q209 0 369 101v-226z" />
    <glyph glyph-name="D" unicode="D" horiz-adv-x="1477" 
d="M182 0v1434h443q384 0 576 -175t192 -524q0 -334 -213.5 -534.5t-565.5 -200.5h-432zM420 1229v-1024h192q250 0 389.5 140t139.5 386q0 241 -137 369.5t-388 128.5h-196z" />
    <glyph glyph-name="E" unicode="E" horiz-adv-x="1059" 
d="M182 0v1434h776v-205h-538v-404h500v-204h-500v-416h571v-205h-809z" />
    <glyph glyph-name="F" unicode="F" horiz-adv-x="1034" 
d="M420 1229v-424h498v-205h-498v-600h-238v1434h776v-205h-538z" />
    <glyph glyph-name="G" unicode="G" horiz-adv-x="1434" 
d="M1298 98q-216 -123 -499 -123q-320 0 -517.5 195t-197.5 526q0 338 217.5 550t550.5 212q238 0 403 -72v-245q-170 110 -417 110q-217 0 -359.5 -149t-142.5 -391q0 -250 129.5 -389.5t351.5 -139.5q137 0 242 54v339h-297v205h536v-682z" />
    <glyph glyph-name="H" unicode="H" horiz-adv-x="1511" 
d="M1090 0v621h-670v-621h-238v1434h238v-603h670v603h239v-1434h-239z" />
    <glyph glyph-name="I" unicode="I" horiz-adv-x="602" 
d="M182 0v1434h238v-1434h-238z" />
    <glyph glyph-name="J" unicode="J" horiz-adv-x="811" 
d="M641 537q0 -269 -122.5 -415.5t-323.5 -146.5q-97 0 -168 33v230q67 -52 161 -52q107 0 161 88t54 265v895h238v-897z" />
    <glyph glyph-name="K" unicode="K" horiz-adv-x="1266" 
d="M958 0l-493 635q-8 11 -21 33q-9 15 -20 32h-4v-700h-238v1434h238v-676h4l21 33q9 15 20 30l477 613h291l-574 -684l617 -750h-318z" />
    <glyph glyph-name="L" unicode="L" horiz-adv-x="1001" 
d="M182 0v1434h238v-1229h561v-205h-799z" />
    <glyph glyph-name="M" unicode="M" horiz-adv-x="1915" 
d="M1499 0v913q0 152 9 260l3 48h-4q-21 -110 -41 -160l-434 -1061h-155l-437 1051q-10 24 -41 170h-6q10 -122 10 -338v-883h-221v1434h340l365 -906q52 -129 65 -198h6q44 120 76 200l375 904h326v-1434h-236z" />
    <glyph glyph-name="N" unicode="N" horiz-adv-x="1585" 
d="M1118 0l-657 1061q-41 66 -51 98h-7q13 -62 13 -227v-932h-234v1434h301l633 -1037q43 -71 60 -102h4q-11 74 -11 231v908h234v-1434h-285z" />
    <glyph glyph-name="O" unicode="O" horiz-adv-x="1542" 
d="M764 -25q-303 0 -491.5 200.5t-188.5 522.5q0 344 190.5 552t513.5 208q299 0 485.5 -200.5t186.5 -526.5q0 -345 -191.5 -550.5t-504.5 -205.5zM778 1247q-201 0 -321.5 -147.5t-120.5 -382.5q0 -240 120.5 -385.5t311.5 -145.5q202 0 321 137t119 386q0 258 -115 398
t-315 140z" />
    <glyph glyph-name="P" unicode="P" horiz-adv-x="1194" 
d="M420 516v-516h-238v1434h443q248 0 380 -116t132 -329q0 -208 -150 -340.5t-397 -132.5h-170zM420 1233v-516h153q148 0 231 67t83 197q0 121 -78 186.5t-225 65.5h-164z" />
    <glyph glyph-name="Q" unicode="Q" horiz-adv-x="1542" 
d="M987 10l367 -364h-322l-282 329q-303 7 -484.5 208t-181.5 515q0 340 189.5 550t519.5 210q294 0 480.5 -201.5t186.5 -525.5q0 -278 -123 -465t-350 -256zM778 1247q-201 0 -321.5 -147.5t-120.5 -382.5q0 -243 121 -387t311 -144q202 0 321 137t119 386
q0 255 -114 396.5t-316 141.5z" />
    <glyph glyph-name="R" unicode="R" horiz-adv-x="1231" 
d="M901 0l-174 414q-36 84 -85 126t-112 42h-110v-582h-238v1434h463q226 0 349.5 -103t123.5 -284q0 -146 -81 -251t-234 -145v-4q46 -16 86.5 -60.5t75.5 -117.5l219 -469h-283zM420 1235v-453h186q116 0 189 68t73 174q0 99 -67 155t-191 56h-190z" />
    <glyph glyph-name="S" unicode="S" horiz-adv-x="1044" 
d="M111 59v260q64 -61 168 -101t200 -40q115 0 172.5 44.5t57.5 133.5q0 75 -57 136t-226 151q-161 85 -240.5 181t-79.5 233q0 178 135.5 289.5t350.5 111.5q183 0 311 -55v-250q-128 102 -309 102q-107 0 -170.5 -50t-63.5 -130q0 -77 42 -129.5t208 -140.5
q189 -99 272 -198t83 -228q0 -185 -133 -294.5t-379 -109.5q-88 0 -190 25.5t-152 58.5z" />
    <glyph glyph-name="T" unicode="T" horiz-adv-x="1124" 
d="M682 1229v-1229h-240v1229h-411v205h1063v-205h-412z" />
    <glyph glyph-name="U" unicode="U" horiz-adv-x="1454" 
d="M1290 594q0 -310 -143.5 -464.5t-429.5 -154.5q-277 0 -415 150t-138 450v859h239v-854q0 -197 82.5 -295.5t247.5 -98.5q159 0 238.5 94.5t79.5 284.5v869h239v-840z" />
    <glyph glyph-name="V" unicode="V" horiz-adv-x="1313" 
d="M793 0h-275l-510 1434h262l359 -1088q21 -65 28 -129h5q9 78 28 133l363 1084h250z" />
    <glyph glyph-name="W" unicode="W" horiz-adv-x="1985" 
d="M1575 0h-281l-270 999q-16 59 -23 152h-4q-9 -94 -24 -152l-268 -999h-285l-404 1434h260l267 -1039q14 -53 20 -155h6q4 58 27 157l289 1037h254l274 -1049q16 -60 23 -143h4q4 71 20 149l258 1043h250z" />
    <glyph glyph-name="X" unicode="X" horiz-adv-x="1270" 
d="M969 0l-303 522q-9 16 -14 36l-11 36h-4q-8 -20 -13 -36q-5 -17 -16 -36l-309 -522h-289l479 719l-438 715h293l256 -471q33 -61 49 -107h4q10 23 22 53q11 29 30 60l276 465h268l-448 -711l454 -723h-286z" />
    <glyph glyph-name="Y" unicode="Y" horiz-adv-x="1178" 
d="M702 520v-520h-237v514l-465 920h270l289 -598q14 -29 21 -53q6 -24 12 -40h2q10 46 33 91l299 600h252z" />
    <glyph glyph-name="Z" unicode="Z" horiz-adv-x="1192" 
d="M367 205h776v-205h-1116v98l790 1131h-729v205h1069v-88z" />
    <glyph glyph-name="bracketleft" unicode="[" horiz-adv-x="676" 
d="M203 -326v1760h414v-156h-216v-1448h216v-156h-414z" />
    <glyph glyph-name="backslash" unicode="\" horiz-adv-x="823" 
d="M653 -240l-669 1674h213l665 -1674h-209z" />
    <glyph glyph-name="bracketright" unicode="]" horiz-adv-x="676" 
d="M58 -326v156h216v1448h-216v156h415v-1760h-415z" />
    <glyph glyph-name="asciicircum" unicode="^" horiz-adv-x="1438" 
d="M1008 596l-306 610l-306 -610h-194l446 862h108l446 -862h-194z" />
    <glyph glyph-name="underscore" unicode="_" horiz-adv-x="850" 
d="M0 -297v119h850v-119h-850z" />
    <glyph glyph-name="grave" unicode="`" horiz-adv-x="594" 
d="M358 1219l-284 325h223l231 -325h-170z" />
    <glyph glyph-name="a" unicode="a" horiz-adv-x="1034" 
d="M700 0v141h-4q-54 -83 -129.5 -124.5t-173.5 -41.5q-151 0 -238 82.5t-87 221.5q0 149 83.5 233.5t251.5 105.5l299 41q0 104 -48.5 156.5t-145.5 52.5q-185 0 -340 -114v204q58 35 166.5 63t197.5 28q198 0 297 -100t99 -300v-649h-228zM481 469q-103 -13 -144.5 -50.5
t-41.5 -115.5q0 -64 47 -104.5t123 -40.5q103 0 170 71t67 177v92z" />
    <glyph glyph-name="b" unicode="b" horiz-adv-x="1235" 
d="M393 129h-4v-129h-231v1516h231v-656h4q121 189 340 189q200 0 310 -139.5t110 -370.5q0 -255 -126 -409.5t-343 -154.5q-188 0 -291 154zM387 557v-135q0 -109 71 -183.5t177 -74.5q132 0 205 98t73 281q0 148 -68 232.5t-188 84.5t-195 -85t-75 -218z" />
    <glyph glyph-name="c" unicode="c" horiz-adv-x="963" 
d="M881 43q-116 -68 -291 -68q-228 0 -368 144.5t-140 365.5q0 259 151.5 411.5t401.5 152.5q144 0 246 -52v-219q-111 82 -236 82q-143 0 -233 -96t-90 -258q0 -159 85.5 -250.5t233.5 -91.5q118 0 240 86v-207z" />
    <glyph glyph-name="d" unicode="d" horiz-adv-x="1235" 
d="M846 0v160h-4q-110 -185 -336 -185q-191 0 -307.5 137t-116.5 375q0 255 128 408.5t341 153.5q197 0 291 -152h4v619h231v-1516h-231zM848 598q0 108 -72.5 185t-179.5 77q-130 0 -202 -95.5t-72 -270.5q0 -156 71 -243t191 -87q111 0 187.5 88.5t76.5 230.5v115z" />
    <glyph glyph-name="e" unicode="e" horiz-adv-x="1079" 
d="M319 444q8 -143 85 -214.5t223 -71.5q168 0 307 98v-195q-143 -86 -363 -86q-233 0 -361 139.5t-128 387.5q0 252 143 399.5t344 147.5q213 0 330 -131t117 -359v-115h-697zM786 618q0 125 -54.5 187.5t-162.5 62.5q-92 0 -161.5 -68t-88.5 -182h467z" />
    <glyph glyph-name="f" unicode="f" horiz-adv-x="711" 
d="M731 1327q-56 25 -110 25q-80 0 -120 -48t-40 -143v-137h229v-186h-229v-838h-234v838h-172v186h172v150q0 164 104 265t265 101q83 0 135 -18v-195z" />
    <glyph glyph-name="g" unicode="g" horiz-adv-x="1235" 
d="M1077 96q0 -278 -149 -427.5t-428 -149.5q-192 0 -338 65v217q170 -96 334 -96q170 0 260 92.5t90 265.5v99h-4q-115 -187 -336 -187q-192 0 -308 138t-116 364q0 264 127 418t342 154q195 0 291 -152h4v127h231v-928zM848 596q0 109 -72 186.5t-178 77.5
q-131 0 -203.5 -95.5t-72.5 -277.5q0 -146 70.5 -234.5t187.5 -88.5t192.5 88t75.5 229v115z" />
    <glyph glyph-name="h" unicode="h" horiz-adv-x="1196" 
d="M831 0v580q0 140 -50 210t-150 70q-107 0 -174.5 -79t-67.5 -195v-586h-231v1516h231v-652h4q57 92 138.5 138.5t187.5 46.5q168 0 257 -107.5t89 -312.5v-629h-234z" />
    <glyph glyph-name="i" unicode="i" horiz-adv-x="545" 
d="M273 1253q-59 0 -100 38.5t-41 94.5q0 58 41 97t100 39q60 0 101 -39.5t41 -96.5q0 -56 -41 -94.5t-101 -38.5zM158 0v1024h231v-1024h-231z" />
    <glyph glyph-name="j" unicode="j" horiz-adv-x="545" 
d="M273 1253q-59 0 -100 38.5t-41 94.5q0 58 41 97t100 39q60 0 101 -39.5t41 -96.5q0 -56 -41 -94.5t-101 -38.5zM389 39q0 -246 -108.5 -383t-303.5 -137q-67 0 -139 28v201q74 -41 129 -41q90 0 140.5 77.5t50.5 225.5v1014h231v-985z" />
    <glyph glyph-name="k" unicode="k" horiz-adv-x="1092" 
d="M795 0l-402 492h-4v-492h-231v1516h231v-959h4l381 467h293l-438 -489l471 -535h-305z" />
    <glyph glyph-name="l" unicode="l" horiz-adv-x="545" 
d="M158 0v1516h231v-1516h-231z" />
    <glyph glyph-name="m" unicode="m" horiz-adv-x="1821" 
d="M1454 0v578q0 143 -44.5 212.5t-158.5 69.5q-91 0 -153 -83.5t-62 -201.5v-575h-231v598q0 131 -50.5 196.5t-150.5 65.5q-94 0 -154.5 -79t-60.5 -206v-575h-231v1024h231v-158h4q111 183 324 183q102 0 180.5 -53.5t110.5 -147.5q117 201 344 201q167 0 250.5 -104
t83.5 -312v-633h-232z" />
    <glyph glyph-name="n" unicode="n" horiz-adv-x="1198" 
d="M836 0v575q0 142 -51.5 213.5t-153.5 71.5q-103 0 -172.5 -78.5t-69.5 -199.5v-582h-231v1024h231v-164h4q112 189 332 189q171 0 256.5 -105t85.5 -315v-629h-231z" />
    <glyph glyph-name="o" unicode="o" horiz-adv-x="1217" 
d="M600 -25q-237 0 -377.5 142t-140.5 383q0 256 145 402.5t398 146.5q240 0 375 -141.5t135 -385.5q0 -249 -144.5 -398t-390.5 -149zM612 860q-135 0 -212.5 -92t-77.5 -260q0 -164 78 -254t214 -90q140 0 210.5 87.5t70.5 262.5q0 170 -75.5 258t-207.5 88z" />
    <glyph glyph-name="p" unicode="p" horiz-adv-x="1235" 
d="M393 129h-4v-600h-231v1495h231v-164h4q120 189 340 189q198 0 309 -139t111 -371q0 -256 -127 -410t-344 -154q-186 0 -289 154zM387 555v-131q0 -112 71 -186t177 -74q132 0 205 98t73 281q0 148 -68 232.5t-188 84.5t-195 -85.5t-75 -219.5z" />
    <glyph glyph-name="q" unicode="q" horiz-adv-x="1235" 
d="M846 -471v633h-4q-108 -187 -332 -187q-193 0 -310.5 135.5t-117.5 374.5q0 257 128.5 410.5t340.5 153.5q194 0 291 -152h4v127h231v-1495h-231zM848 596q0 110 -73 187t-179 77q-130 0 -202 -95.5t-72 -275.5q0 -155 72 -240t184 -85q119 0 194.5 88.5t75.5 224.5v119z
" />
    <glyph glyph-name="r" unicode="r" horiz-adv-x="758" 
d="M748 799q-57 35 -134 35q-100 0 -162.5 -86t-62.5 -224v-524h-231v1024h231v-199h4q74 217 262 217q61 0 93 -14v-229z" />
    <glyph glyph-name="s" unicode="s" horiz-adv-x="834" 
d="M92 31v221q136 -96 277 -96q83 0 124.5 27.5t41.5 82.5q0 51 -36 83.5t-163 84.5q-148 64 -196 133.5t-48 169.5q0 137 108.5 224.5t282.5 87.5q120 0 230 -43v-209q-110 71 -238 71q-69 0 -109 -31t-40 -79q0 -50 26 -80t154 -82q147 -59 204.5 -130t57.5 -173
q0 -141 -109 -229.5t-299 -88.5q-142 0 -268 56z" />
    <glyph glyph-name="t" unicode="t" horiz-adv-x="754" 
d="M698 10q-70 -35 -178 -35q-151 0 -226 81t-75 243v539h-170v186h170v236l232 71v-307h247v-186h-247v-496q0 -97 35 -137.5t110 -40.5q54 0 102 31v-185z" />
    <glyph glyph-name="u" unicode="u" horiz-adv-x="1198" 
d="M831 0v154h-4q-106 -179 -309 -179q-184 0 -275.5 107t-91.5 321v621h234v-592q0 -134 53 -201t160 -67q104 0 168.5 74t64.5 194v592h233v-1024h-233z" />
    <glyph glyph-name="v" unicode="v" horiz-adv-x="1038" 
d="M635 0h-248l-379 1024h254l221 -686q28 -86 35 -166h4q15 92 37 162l229 690h244z" />
    <glyph glyph-name="w" unicode="w" horiz-adv-x="1556" 
d="M1237 0h-246l-188 680q-9 32 -17 106h-4q-9 -66 -20 -104l-201 -682h-242l-301 1024h240l182 -723q9 -36 15 -100h6q6 62 18 104l211 719h221l193 -725q6 -23 14 -102h6q7 68 17 102l174 725h223z" />
    <glyph glyph-name="x" unicode="x" horiz-adv-x="1024" 
d="M664 514l340 -514h-269l-178 309q-7 12 -43 80h-4q-9 -22 -21 -43q-13 -21 -22 -37l-182 -309h-267l351 506l-330 518h270l174 -326q25 -48 39 -82h4q10 27 43 84l183 324h254z" />
    <glyph glyph-name="y" unicode="y" horiz-adv-x="1047" 
d="M596 -123q-70 -179 -170 -268.5t-231 -89.5q-85 0 -142 16v197q58 -25 113 -25q61 0 106 33t74 98l70 162l-410 1024h260l240 -721q11 -33 22 -98h4q5 15 11 42q5 27 14 56l248 721h235z" />
    <glyph glyph-name="z" unicode="z" horiz-adv-x="938" 
d="M350 186h549v-186h-876v82l557 756h-498v186h815v-88z" />
    <glyph glyph-name="braceleft" unicode="{" horiz-adv-x="676" 
d="M606 -326q-182 0 -268 77.5t-86 254.5v283q0 94 -39 141t-117 47v154q78 0 117 49.5t39 148.5v265q0 170 88.5 255t265.5 85v-158q-80 0 -120 -45.5t-40 -136.5v-267q0 -107 -37.5 -174.5t-111.5 -95.5v-4q74 -24 111.5 -90t37.5 -174v-266q0 -99 36.5 -145t123.5 -46
v-158z" />
    <glyph glyph-name="bar" unicode="|" horiz-adv-x="557" 
d="M180 -481v2048h197v-2048h-197z" />
    <glyph glyph-name="braceright" unicode="}" horiz-adv-x="676" 
d="M580 477q-77 0 -115.5 -47t-38.5 -141v-281q0 -179 -87 -256.5t-269 -77.5v158q85 0 122 44t37 147v268q0 105 38 170.5t114 91.5v4q-76 27 -114 95t-38 177v265q0 91 -40 136.5t-119 45.5v158q178 0 267 -84.5t89 -253.5v-267q0 -99 38.5 -148.5t115.5 -49.5v-154z" />
    <glyph glyph-name="asciitilde" unicode="~" horiz-adv-x="1438" 
d="M1245 768q-7 -161 -87.5 -253.5t-217.5 -92.5q-64 0 -117.5 20.5t-163.5 87.5q-90 62 -153 62q-65 0 -99.5 -44t-39.5 -132h-172q7 164 87 255t218 91q111 0 248 -86q88 -55 120.5 -69.5t73.5 -14.5q56 0 92.5 48t36.5 128h174z" />
    <glyph glyph-name="uni00A0" unicode="&#xa0;" horiz-adv-x="563" 
d="M0 0z" />
    <glyph glyph-name="exclamdown" unicode="&#xa1;" horiz-adv-x="610" 
d="M305 774q-58 0 -100.5 40t-42.5 97q0 58 41.5 98t101.5 40t100.5 -40t40.5 -98q0 -56 -40.5 -96.5t-100.5 -40.5zM186 -406l25 1018h190l27 -1018h-242z" />
    <glyph glyph-name="cent" unicode="&#xa2;" 
d="M983 209q-85 -52 -207 -66v-186h-147v186q-202 22 -322.5 162t-120.5 344q0 224 120 371t323 182v217h147v-207q117 -5 207 -51v-225q-97 68 -207 78v-680q110 14 207 82v-207zM629 1001q-213 -69 -213 -331q0 -258 213 -324v655z" />
    <glyph glyph-name="sterling" unicode="&#xa3;" 
d="M125 0v178q201 54 201 285v155h-181v183h181v221q0 190 115.5 313t303.5 123q126 0 228 -45v-207q-104 64 -217 64q-205 0 -205 -273v-196h287v-183h-287v-124q0 -204 -170 -306h676v-188h-932z" />
    <glyph glyph-name="currency" unicode="&#xa4;" horiz-adv-x="1139" 
d="M946 233l-141 140q-109 -70 -236 -70q-126 0 -235 70l-141 -140l-117 123l137 136q-70 110 -70 233q0 126 70 233l-137 138l117 123l141 -140q112 72 235 72q124 0 236 -72l141 140l117 -123l-137 -138q71 -108 71 -233q0 -122 -71 -233l137 -136zM569 983
q-106 0 -181 -75t-75 -181t75 -181t181 -75q107 0 182.5 76t75.5 180t-78 180t-180 76z" />
    <glyph glyph-name="yen" unicode="&#xa5;" 
d="M748 793h258v-172h-316v-177h316v-172h-316v-272h-229v272h-326v172h326v177h-326v172h264l-342 641h260l220 -488q31 -68 45 -106h4q5 22 47 112l219 482h244z" />
    <glyph glyph-name="brokenbar" unicode="&#xa6;" horiz-adv-x="557" 
d="M180 705v862h197v-862h-197zM180 -481v866h197v-866h-197z" />
    <glyph glyph-name="section" unicode="&#xa7;" horiz-adv-x="942" 
d="M698 426q86 -74 86 -180q0 -139 -104.5 -225.5t-271.5 -86.5q-143 0 -263 62v205q152 -88 279 -88q71 0 109 31.5t38 80.5q0 53 -32.5 81t-171.5 100q-246 123 -246 325q0 150 137 236q-96 88 -96 223q0 130 98 215.5t262 85.5q131 0 240 -49v-205q-114 76 -244 76
q-141 0 -141 -115q0 -52 41 -88t190 -109q238 -114 238 -303q0 -171 -148 -272zM406 881q-76 -43 -76 -133q0 -60 52.5 -108t184.5 -108q68 50 68 138q0 59 -45 106t-184 105z" />
    <glyph glyph-name="dieresis" unicode="&#xa8;" horiz-adv-x="889" 
d="M647 1219q-53 0 -88 33t-35 83q0 51 35.5 85t87.5 34q54 0 89.5 -34t35.5 -85q0 -49 -35.5 -82.5t-89.5 -33.5zM225 1219q-53 0 -89 33.5t-36 82.5q0 51 36 85t89 34q52 0 87.5 -34t35.5 -85q0 -50 -35 -83t-88 -33z" />
    <glyph glyph-name="copyright" unicode="&#xa9;" horiz-adv-x="1819" 
d="M907 -25q-329 0 -541 208t-212 530q0 314 218 529.5t543 215.5q322 0 537 -208.5t215 -530.5q0 -315 -218 -529.5t-542 -214.5zM911 1364q-284 0 -468.5 -186t-184.5 -463q0 -279 188 -465.5t465 -186.5q272 0 461 187.5t189 464.5t-187.5 463t-462.5 186zM1221 274
q-124 -69 -277 -69q-208 0 -348.5 140.5t-140.5 348.5q0 242 146 387.5t376 145.5q124 0 240 -53v-197q-104 78 -254 78q-137 0 -227.5 -93.5t-90.5 -252.5q0 -153 93 -245.5t233 -92.5q145 0 250 82v-179z" />
    <glyph glyph-name="ordfeminine" unicode="&#xaa;" horiz-adv-x="834" 
d="M549 717v84h-4q-79 -105 -221 -105q-108 0 -176 60t-68 157q0 207 252 240l217 27q0 141 -143 141q-127 0 -252 -82v154q132 63 274 63q289 0 289 -282v-457h-168zM389 1040q-80 -11 -110.5 -37.5t-30.5 -76.5q0 -47 36.5 -74t92.5 -27q66 0 119 46.5t53 115.5v76z" />
    <glyph glyph-name="guillemotleft" unicode="&#xab;" horiz-adv-x="1112" 
d="M825 201l-315 336l315 344h217l-321 -344l321 -336h-217zM385 201l-315 336l315 344h215l-319 -344l319 -336h-215z" />
    <glyph glyph-name="logicalnot" unicode="&#xac;" horiz-adv-x="1438" 
d="M1032 289v424h-792v170h960v-594h-168z" />
    <glyph glyph-name="registered" unicode="&#xae;" horiz-adv-x="1819" 
d="M907 -25q-329 0 -541 208t-212 530q0 314 218 529.5t543 215.5q322 0 537 -208.5t215 -530.5q0 -315 -218 -529.5t-542 -214.5zM911 1364q-284 0 -468.5 -186t-184.5 -463q0 -279 188 -465.5t465 -186.5q272 0 461 187.5t189 464.5t-187.5 463t-462.5 186zM1075 254
l-92 225q-63 154 -141 154h-74v-379h-170v940h285q177 0 268.5 -69.5t91.5 -190.5q0 -93 -60 -161t-169 -93v-4q77 -11 151 -166l121 -256h-211zM768 1047v-273h117q81 0 127.5 37t46.5 102q0 81 -47 107.5t-150 26.5h-94z" />
    <glyph glyph-name="uni00AF" unicode="&#xaf;" horiz-adv-x="850" 
d="M0 1612v119h850v-119h-850z" />
    <glyph glyph-name="degree" unicode="&#xb0;" horiz-adv-x="770" 
d="M385 887q-118 0 -201.5 83t-83.5 204q0 119 83 201.5t202 82.5t204 -82.5t85 -201.5q0 -121 -85.5 -204t-203.5 -83zM385 1317q-60 0 -101.5 -41.5t-41.5 -101.5t42 -103t101 -43t103 43t44 103t-43.5 101.5t-103.5 41.5z" />
    <glyph glyph-name="plusminus" unicode="&#xb1;" horiz-adv-x="1438" 
d="M805 670v-396h-170v396h-395v170h395v397h170v-397h395v-170h-395zM240 0v170h958v-170h-958z" />
    <glyph glyph-name="twosuperior" unicode="&#xb2;" horiz-adv-x="782" 
d="M111 584v133l241 233q83 81 110 128.5t27 105.5q0 48 -34 80t-84 32q-115 0 -213 -102v184q97 76 239 76q125 0 199 -69t74 -183q0 -83 -43.5 -154t-161.5 -184l-135 -127v-4h360v-149h-579z" />
    <glyph glyph-name="threesuperior" unicode="&#xb3;" horiz-adv-x="782" 
d="M129 618v168q101 -77 225 -77q158 0 158 118q0 119 -197 119h-100v144h96q174 0 174 112q0 105 -131 105q-101 0 -194 -74v166q99 55 227 55q123 0 196.5 -61.5t73.5 -157.5q0 -146 -145 -199v-4q174 -42 174 -198q0 -121 -91 -196t-241 -75q-132 0 -225 55z" />
    <glyph glyph-name="acute" unicode="&#xb4;" horiz-adv-x="612" 
d="M281 1219h-172l231 325h223z" />
    <glyph glyph-name="uni00B5" unicode="&#xb5;" horiz-adv-x="1223" 
d="M838 0v127h-4q-32 -68 -101.5 -109t-148.5 -41q-138 0 -191 101h-4v-455h-233v1401h233v-578q0 -280 207 -280q104 0 172 71t68 193v594h231v-1024h-229z" />
    <glyph glyph-name="uni00B5" unicode="&#x3bc;" horiz-adv-x="1223" 
d="M838 0v127h-4q-32 -68 -101.5 -109t-148.5 -41q-138 0 -191 101h-4v-455h-233v1401h233v-578q0 -280 207 -280q104 0 172 71t68 193v594h231v-1024h-229z" />
    <glyph glyph-name="paragraph" unicode="&#xb6;" horiz-adv-x="963" 
d="M739 1307v-1307h-135v1307h-133v-1307h-137v881q-114 6 -185 84t-71 196q0 119 79 196t191 77h514v-127h-123z" />
    <glyph glyph-name="uni00B7" unicode="&#xb7;" horiz-adv-x="479" 
d="M238 469q-60 0 -102 41.5t-42 97.5q0 57 43 97t103 40q62 0 102.5 -40.5t40.5 -96.5q0 -58 -41.5 -98.5t-103.5 -40.5z" />
    <glyph glyph-name="uni00B7" unicode="&#x2219;" horiz-adv-x="479" 
d="M238 469q-60 0 -102 41.5t-42 97.5q0 57 43 97t103 40q62 0 102.5 -40.5t40.5 -96.5q0 -58 -41.5 -98.5t-103.5 -40.5z" />
    <glyph glyph-name="cedilla" unicode="&#xb8;" horiz-adv-x="430" 
d="M49 -436v108q23 -4 66 -4q129 0 129 84q0 70 -117 70h-17q-9 0 -18 -2v180h141v-94q179 -5 179 -156q0 -88 -76 -138t-217 -50h-34q-17 0 -36 2z" />
    <glyph glyph-name="onesuperior" unicode="&#xb9;" horiz-adv-x="748" 
d="M139 584v139h178v532l-188 -47v154l360 92v-731h183v-139h-533z" />
    <glyph glyph-name="ordmasculine" unicode="&#xba;" horiz-adv-x="922" 
d="M449 696q-175 0 -273 99t-98 274q0 179 105.5 282t283.5 103q169 0 266.5 -99t97.5 -268q0 -181 -102.5 -286t-279.5 -105zM459 1313q-94 0 -148.5 -63t-54.5 -175q0 -237 201 -237q90 0 143 64t53 175q0 113 -50.5 174.5t-143.5 61.5z" />
    <glyph glyph-name="guillemotright" unicode="&#xbb;" horiz-adv-x="1112" 
d="M727 201h-215l319 336l-319 344h215l315 -344zM287 201h-217l321 336l-321 344h217l315 -344z" />
    <glyph glyph-name="onequarter" unicode="&#xbc;" horiz-adv-x="1913" 
d="M139 584v139h178v532l-188 -47v154l360 92v-731h183v-139h-533zM667 0h-188l866 1434h188zM1744 193v-193h-170v193h-395v114l360 543h205v-524h113v-133h-113zM1574 707q-11 -30 -37 -72l-194 -309h231v292q0 49 4 89h-4z" />
    <glyph glyph-name="onehalf" unicode="&#xbd;" horiz-adv-x="1960" 
d="M139 584v139h178v532l-188 -47v154l360 92v-731h183v-139h-533zM667 0h-188l866 1434h188zM1288 0v133l241 233q83 81 110 128.5t27 105.5q0 48 -34 80t-84 32q-115 0 -213 -102v184q97 76 239 76q125 0 199 -69t74 -183q0 -83 -43.5 -154t-161.5 -184l-135 -127v-4h360
v-149h-579z" />
    <glyph glyph-name="threequarters" unicode="&#xbe;" horiz-adv-x="1913" 
d="M129 618v168q101 -77 225 -77q158 0 158 118q0 119 -197 119h-100v144h96q174 0 174 112q0 105 -131 105q-101 0 -194 -74v166q99 55 227 55q123 0 196.5 -61.5t73.5 -157.5q0 -146 -145 -199v-4q174 -42 174 -198q0 -121 -91 -196t-241 -75q-132 0 -225 55zM667 0h-188
l866 1434h188zM1744 193v-193h-170v193h-395v114l360 543h205v-524h113v-133h-113zM1574 707q-11 -30 -37 -72l-194 -309h231v292q0 49 4 89h-4z" />
    <glyph glyph-name="questiondown" unicode="&#xbf;" horiz-adv-x="924" 
d="M530 774q-58 0 -99.5 40.5t-41.5 96.5q0 59 41.5 98.5t99.5 39.5q60 0 103 -40.5t43 -97.5t-43.5 -97t-102.5 -40zM801 -344q-151 -94 -326 -94q-181 0 -288 100t-107 260q0 211 192 375q100 84 128 131.5t28 118.5v69h203v-81q0 -97 -35.5 -167t-128.5 -147
q-95 -82 -129.5 -140t-34.5 -132q0 -83 58.5 -138t144.5 -55q161 0 295 138v-238z" />
    <glyph glyph-name="Agrave" unicode="&#xc0;" horiz-adv-x="1368" 
d="M1098 0l-131 362h-574l-125 -362h-260l543 1434h264l545 -1434h-262zM702 1116q-12 35 -20 103h-6q-6 -57 -21 -103l-196 -553h440zM653 1567l-284 325h223l231 -325h-170z" />
    <glyph glyph-name="Aacute" unicode="&#xc1;" horiz-adv-x="1368" 
d="M1098 0l-131 362h-574l-125 -362h-260l543 1434h264l545 -1434h-262zM702 1116q-12 35 -20 103h-6q-6 -57 -21 -103l-196 -553h440zM666 1567h-172l231 325h223z" />
    <glyph glyph-name="Acircumflex" unicode="&#xc2;" horiz-adv-x="1368" 
d="M1098 0l-131 362h-574l-125 -362h-260l543 1434h264l545 -1434h-262zM702 1116q-12 35 -20 103h-6q-6 -57 -21 -103l-196 -553h440zM840 1567l-164 213l-164 -213h-150l220 325h196l219 -325h-157z" />
    <glyph glyph-name="Atilde" unicode="&#xc3;" horiz-adv-x="1368" 
d="M1098 0l-131 362h-574l-125 -362h-260l543 1434h264l545 -1434h-262zM702 1116q-12 35 -20 103h-6q-6 -57 -21 -103l-196 -553h440zM1022 1845q0 -119 -51 -188.5t-138 -69.5q-70 0 -166 41q-83 39 -121 39q-79 0 -79 -100h-117q0 120 51.5 189t140.5 69q69 0 154 -45
q81 -39 127 -39q80 0 80 104h119z" />
    <glyph glyph-name="Adieresis" unicode="&#xc4;" horiz-adv-x="1368" 
d="M1098 0l-131 362h-574l-125 -362h-260l543 1434h264l545 -1434h-262zM702 1116q-12 35 -20 103h-6q-6 -57 -21 -103l-196 -553h440zM893 1567q-53 0 -88 33t-35 83q0 51 35.5 85t87.5 34q54 0 89.5 -34t35.5 -85q0 -49 -35.5 -82.5t-89.5 -33.5zM471 1567q-53 0 -89 33.5
t-36 82.5q0 51 36 85t89 34q52 0 87.5 -34t35.5 -85q0 -50 -35 -83t-88 -33z" />
    <glyph glyph-name="Aring" unicode="&#xc5;" horiz-adv-x="1368" 
d="M1098 0l-131 362h-574l-125 -362h-260l524 1389q-73 53 -73 151q0 96 64.5 154.5t162.5 58.5q95 0 156 -57t61 -148q0 -95 -74 -153l531 -1395h-262zM678 1651q-47 0 -76 -30t-29 -75q0 -49 29 -78.5t76 -29.5q45 0 76.5 32.5t31.5 75.5q0 45 -30 75t-78 30zM700 1116
q-8 23 -18 101h-6q-5 -53 -21 -101l-194 -549h436z" />
    <glyph glyph-name="AE" unicode="&#xc6;" horiz-adv-x="1829" 
d="M952 0v362h-499l-170 -362h-279l711 1434h1014v-205h-539v-404h500v-204h-500v-416h571v-205h-809zM952 1229h-92l-317 -666h409v666z" />
    <glyph glyph-name="Ccedilla" unicode="&#xc7;" horiz-adv-x="1272" 
d="M1180 61q-144 -73 -373 -86v-69q176 -5 176 -156q0 -88 -76 -138t-217 -50h-34q-17 0 -35 2v108q22 -4 65 -4q129 0 129 84q0 70 -117 70h-17q-8 0 -17 -2v162q-274 35 -427 225.5t-153 480.5q0 341 211.5 555.5t535.5 214.5q214 0 349 -59v-242q-155 90 -342 90
q-222 0 -363 -147t-141 -398q0 -238 130.5 -377t346.5 -139q209 0 369 101v-226z" />
    <glyph glyph-name="Egrave" unicode="&#xc8;" horiz-adv-x="1059" 
d="M182 0v1434h776v-205h-538v-404h500v-204h-500v-416h571v-205h-809zM565 1567l-284 325h223l231 -325h-170z" />
    <glyph glyph-name="Eacute" unicode="&#xc9;" horiz-adv-x="1059" 
d="M182 0v1434h776v-205h-538v-404h500v-204h-500v-416h571v-205h-809zM582 1567h-172l231 325h223z" />
    <glyph glyph-name="Ecircumflex" unicode="&#xca;" horiz-adv-x="1059" 
d="M182 0v1434h776v-205h-538v-404h500v-204h-500v-416h571v-205h-809zM719 1567l-164 213l-164 -213h-150l220 325h196l219 -325h-157z" />
    <glyph glyph-name="Edieresis" unicode="&#xcb;" horiz-adv-x="1059" 
d="M182 0v1434h776v-205h-538v-404h500v-204h-500v-416h571v-205h-809zM782 1567q-53 0 -88 33t-35 83q0 51 35.5 85t87.5 34q54 0 89.5 -34t35.5 -85q0 -49 -35.5 -82.5t-89.5 -33.5zM360 1567q-53 0 -89 33.5t-36 82.5q0 51 36 85t89 34q52 0 87.5 -34t35.5 -85
q0 -50 -35 -83t-88 -33z" />
    <glyph glyph-name="Igrave" unicode="&#xcc;" horiz-adv-x="602" 
d="M182 0v1434h238v-1434h-238zM302 1567l-284 325h223l231 -325h-170z" />
    <glyph glyph-name="Iacute" unicode="&#xcd;" horiz-adv-x="602" 
d="M182 0v1434h238v-1434h-238zM293 1567h-172l231 325h223z" />
    <glyph glyph-name="Icircumflex" unicode="&#xce;" horiz-adv-x="602" 
d="M182 0v1434h238v-1434h-238zM468 1567l-164 213l-164 -213h-150l220 325h196l219 -325h-157z" />
    <glyph glyph-name="Idieresis" unicode="&#xcf;" horiz-adv-x="602" 
d="M182 0v1434h238v-1434h-238zM519 1567q-53 0 -88 33t-35 83q0 51 35.5 85t87.5 34q54 0 89.5 -34t35.5 -85q0 -49 -35.5 -82.5t-89.5 -33.5zM97 1567q-53 0 -89 33.5t-36 82.5q0 51 36 85t89 34q52 0 87.5 -34t35.5 -85q0 -50 -35 -83t-88 -33z" />
    <glyph glyph-name="Eth" unicode="&#xd0;" horiz-adv-x="1477" 
d="M182 0v614h-164v211h164v609h443q768 0 768 -699q0 -334 -213.5 -534.5t-565.5 -200.5h-432zM420 1229v-404h295v-211h-295v-409h192q250 0 389.5 140t139.5 386q0 241 -137 369.5t-388 128.5h-196z" />
    <glyph glyph-name="Ntilde" unicode="&#xd1;" horiz-adv-x="1585" 
d="M1118 0l-657 1061q-41 66 -51 98h-7q13 -62 13 -227v-932h-234v1434h301l633 -1037q43 -71 60 -102h4q-11 74 -11 231v908h234v-1434h-285zM1162 1845q0 -119 -51 -188.5t-138 -69.5q-70 0 -166 41q-83 39 -121 39q-79 0 -79 -100h-117q0 120 51.5 189t140.5 69
q69 0 154 -45q81 -39 127 -39q80 0 80 104h119z" />
    <glyph glyph-name="Ograve" unicode="&#xd2;" horiz-adv-x="1542" 
d="M764 -25q-303 0 -491.5 200.5t-188.5 522.5q0 344 190.5 552t513.5 208q299 0 485.5 -200.5t186.5 -526.5q0 -345 -191.5 -550.5t-504.5 -205.5zM778 1247q-201 0 -321.5 -147.5t-120.5 -382.5q0 -240 120.5 -385.5t311.5 -145.5q202 0 321 137t119 386q0 258 -115 398
t-315 140zM755 1567l-284 325h223l231 -325h-170z" />
    <glyph glyph-name="Oacute" unicode="&#xd3;" horiz-adv-x="1542" 
d="M764 -25q-303 0 -491.5 200.5t-188.5 522.5q0 344 190.5 552t513.5 208q299 0 485.5 -200.5t186.5 -526.5q0 -345 -191.5 -550.5t-504.5 -205.5zM778 1247q-201 0 -321.5 -147.5t-120.5 -382.5q0 -240 120.5 -385.5t311.5 -145.5q202 0 321 137t119 386q0 258 -115 398
t-315 140zM781 1567h-172l231 325h223z" />
    <glyph glyph-name="Ocircumflex" unicode="&#xd4;" horiz-adv-x="1542" 
d="M764 -25q-303 0 -491.5 200.5t-188.5 522.5q0 344 190.5 552t513.5 208q299 0 485.5 -200.5t186.5 -526.5q0 -345 -191.5 -550.5t-504.5 -205.5zM778 1247q-201 0 -321.5 -147.5t-120.5 -382.5q0 -240 120.5 -385.5t311.5 -145.5q202 0 321 137t119 386q0 258 -115 398
t-315 140zM938 1567l-164 213l-164 -213h-150l220 325h196l219 -325h-157z" />
    <glyph glyph-name="Otilde" unicode="&#xd5;" horiz-adv-x="1542" 
d="M764 -25q-303 0 -491.5 200.5t-188.5 522.5q0 344 190.5 552t513.5 208q299 0 485.5 -200.5t186.5 -526.5q0 -345 -191.5 -550.5t-504.5 -205.5zM778 1247q-201 0 -321.5 -147.5t-120.5 -382.5q0 -240 120.5 -385.5t311.5 -145.5q202 0 321 137t119 386q0 258 -115 398
t-315 140zM1117 1845q0 -119 -51 -188.5t-138 -69.5q-70 0 -166 41q-83 39 -121 39q-79 0 -79 -100h-117q0 120 51.5 189t140.5 69q69 0 154 -45q81 -39 127 -39q80 0 80 104h119z" />
    <glyph glyph-name="Odieresis" unicode="&#xd6;" horiz-adv-x="1542" 
d="M764 -25q-303 0 -491.5 200.5t-188.5 522.5q0 344 190.5 552t513.5 208q299 0 485.5 -200.5t186.5 -526.5q0 -345 -191.5 -550.5t-504.5 -205.5zM778 1247q-201 0 -321.5 -147.5t-120.5 -382.5q0 -240 120.5 -385.5t311.5 -145.5q202 0 321 137t119 386q0 258 -115 398
t-315 140zM985 1567q-53 0 -88 33t-35 83q0 51 35.5 85t87.5 34q54 0 89.5 -34t35.5 -85q0 -49 -35.5 -82.5t-89.5 -33.5zM563 1567q-53 0 -89 33.5t-36 82.5q0 51 36 85t89 34q52 0 87.5 -34t35.5 -85q0 -50 -35 -83t-88 -33z" />
    <glyph glyph-name="multiply" unicode="&#xd7;" horiz-adv-x="1438" 
d="M1061 133l-340 340l-342 -340l-121 121l342 338l-342 342l119 121l344 -340l342 340l117 -123l-340 -340l342 -338z" />
    <glyph glyph-name="Oslash" unicode="&#xd8;" horiz-adv-x="1542" 
d="M334 119l-146 -172l-96 82l150 180q-158 190 -158 489q0 341 189.5 550.5t514.5 209.5q236 0 402 -125l131 158l98 -80l-137 -162q178 -204 178 -518q0 -345 -191.5 -550.5t-504.5 -205.5q-248 0 -430 144zM1051 1167q-110 88 -273 88q-204 0 -327 -150t-123 -390
q0 -194 75 -320zM1130 1067l-651 -774q116 -115 289 -115q209 0 329 141.5t120 389.5q0 217 -87 358z" />
    <glyph glyph-name="Ugrave" unicode="&#xd9;" horiz-adv-x="1454" 
d="M1290 594q0 -310 -143.5 -464.5t-429.5 -154.5q-277 0 -415 150t-138 450v859h239v-854q0 -197 82.5 -295.5t247.5 -98.5q159 0 238.5 94.5t79.5 284.5v869h239v-840zM708 1567l-284 325h223l231 -325h-170z" />
    <glyph glyph-name="Uacute" unicode="&#xda;" horiz-adv-x="1454" 
d="M1290 594q0 -310 -143.5 -464.5t-429.5 -154.5q-277 0 -415 150t-138 450v859h239v-854q0 -197 82.5 -295.5t247.5 -98.5q159 0 238.5 94.5t79.5 284.5v869h239v-840zM740 1567h-172l231 325h223z" />
    <glyph glyph-name="Ucircumflex" unicode="&#xdb;" horiz-adv-x="1454" 
d="M1290 594q0 -310 -143.5 -464.5t-429.5 -154.5q-277 0 -415 150t-138 450v859h239v-854q0 -197 82.5 -295.5t247.5 -98.5q159 0 238.5 94.5t79.5 284.5v869h239v-840zM885 1567l-164 213l-164 -213h-150l220 325h196l219 -325h-157z" />
    <glyph glyph-name="Udieresis" unicode="&#xdc;" horiz-adv-x="1454" 
d="M1290 594q0 -310 -143.5 -464.5t-429.5 -154.5q-277 0 -415 150t-138 450v859h239v-854q0 -197 82.5 -295.5t247.5 -98.5q159 0 238.5 94.5t79.5 284.5v869h239v-840zM936 1567q-53 0 -88 33t-35 83q0 51 35.5 85t87.5 34q54 0 89.5 -34t35.5 -85q0 -49 -35.5 -82.5
t-89.5 -33.5zM514 1567q-53 0 -89 33.5t-36 82.5q0 51 36 85t89 34q52 0 87.5 -34t35.5 -85q0 -50 -35 -83t-88 -33z" />
    <glyph glyph-name="Yacute" unicode="&#xdd;" horiz-adv-x="1178" 
d="M702 520v-520h-237v514l-465 920h270l289 -598q14 -29 21 -53q6 -24 12 -40h2q10 46 33 91l299 600h252zM617 1567h-172l231 325h223z" />
    <glyph glyph-name="Thorn" unicode="&#xde;" horiz-adv-x="1194" 
d="M420 299v-299h-238v1434h238v-217h205q246 0 379 -116t133 -329q0 -208 -150 -340.5t-397 -132.5h-170zM420 1016v-516h153q148 0 231 66t83 196q0 120 -78 187t-225 67h-164z" />
    <glyph glyph-name="germandbls" unicode="&#xdf;" horiz-adv-x="1186" 
d="M498 6v213q76 -55 178 -55q93 0 151 63t58 168q0 136 -93 219.5t-264 94.5v176q110 13 180 90t70 176q0 94 -49.5 147.5t-134.5 53.5q-205 0 -205 -279v-1073h-231v1094q0 199 120 322.5t330 123.5q185 0 296.5 -100.5t111.5 -263.5q0 -124 -76 -224t-195 -133v-4
q379 -68 379 -416q0 -174 -116 -299t-314 -125q-101 0 -196 31z" />
    <glyph glyph-name="agrave" unicode="&#xe0;" horiz-adv-x="1034" 
d="M700 0v141h-4q-54 -83 -129.5 -124.5t-173.5 -41.5q-151 0 -238 82.5t-87 221.5q0 149 83.5 233.5t251.5 105.5l299 41q0 104 -48.5 156.5t-145.5 52.5q-185 0 -340 -114v204q58 35 166.5 63t197.5 28q198 0 297 -100t99 -300v-649h-228zM481 469q-103 -13 -144.5 -50.5
t-41.5 -115.5q0 -64 47 -104.5t123 -40.5q103 0 170 71t67 177v92zM528 1219l-284 325h223l231 -325h-170z" />
    <glyph glyph-name="aacute" unicode="&#xe1;" horiz-adv-x="1034" 
d="M700 0v141h-4q-54 -83 -129.5 -124.5t-173.5 -41.5q-151 0 -238 82.5t-87 221.5q0 149 83.5 233.5t251.5 105.5l299 41q0 104 -48.5 156.5t-145.5 52.5q-185 0 -340 -114v204q58 35 166.5 63t197.5 28q198 0 297 -100t99 -300v-649h-228zM481 469q-103 -13 -144.5 -50.5
t-41.5 -115.5q0 -64 47 -104.5t123 -40.5q103 0 170 71t67 177v92zM521 1219h-172l231 325h223z" />
    <glyph glyph-name="acircumflex" unicode="&#xe2;" horiz-adv-x="1034" 
d="M700 0v141h-4q-54 -83 -129.5 -124.5t-173.5 -41.5q-151 0 -238 82.5t-87 221.5q0 149 83.5 233.5t251.5 105.5l299 41q0 104 -48.5 156.5t-145.5 52.5q-185 0 -340 -114v204q58 35 166.5 63t197.5 28q198 0 297 -100t99 -300v-649h-228zM481 469q-103 -13 -144.5 -50.5
t-41.5 -115.5q0 -64 47 -104.5t123 -40.5q103 0 170 71t67 177v92zM684 1219l-164 213l-164 -213h-150l220 325h196l219 -325h-157z" />
    <glyph glyph-name="atilde" unicode="&#xe3;" horiz-adv-x="1034" 
d="M700 0v141h-4q-54 -83 -129.5 -124.5t-173.5 -41.5q-151 0 -238 82.5t-87 221.5q0 149 83.5 233.5t251.5 105.5l299 41q0 104 -48.5 156.5t-145.5 52.5q-185 0 -340 -114v204q58 35 166.5 63t197.5 28q198 0 297 -100t99 -300v-649h-228zM481 469q-103 -13 -144.5 -50.5
t-41.5 -115.5q0 -64 47 -104.5t123 -40.5q103 0 170 71t67 177v92zM857 1497q0 -119 -51 -188.5t-138 -69.5q-70 0 -166 41q-83 39 -121 39q-79 0 -79 -100h-117q0 120 51.5 189t140.5 69q69 0 154 -45q81 -39 127 -39q80 0 80 104h119z" />
    <glyph glyph-name="adieresis" unicode="&#xe4;" horiz-adv-x="1034" 
d="M700 0v141h-4q-54 -83 -129.5 -124.5t-173.5 -41.5q-151 0 -238 82.5t-87 221.5q0 149 83.5 233.5t251.5 105.5l299 41q0 104 -48.5 156.5t-145.5 52.5q-185 0 -340 -114v204q58 35 166.5 63t197.5 28q198 0 297 -100t99 -300v-649h-228zM481 469q-103 -13 -144.5 -50.5
t-41.5 -115.5q0 -64 47 -104.5t123 -40.5q103 0 170 71t67 177v92zM733 1219q-53 0 -88 33t-35 83q0 51 35.5 85t87.5 34q54 0 89.5 -34t35.5 -85q0 -49 -35.5 -82.5t-89.5 -33.5zM311 1219q-53 0 -89 33.5t-36 82.5q0 51 36 85t89 34q52 0 87.5 -34t35.5 -85q0 -50 -35 -83
t-88 -33z" />
    <glyph glyph-name="aring" unicode="&#xe5;" horiz-adv-x="1034" 
d="M700 0v141h-4q-54 -83 -129.5 -124.5t-173.5 -41.5q-151 0 -238 82.5t-87 221.5q0 149 83.5 233.5t251.5 105.5l299 41q0 104 -48.5 156.5t-145.5 52.5q-185 0 -340 -114v204q58 35 166.5 63t197.5 28q198 0 297 -100t99 -300v-649h-228zM481 469q-103 -13 -144.5 -50.5
t-41.5 -115.5q0 -64 47 -104.5t123 -40.5q103 0 170 71t67 177v92zM527 1167q-90 0 -153 55t-63 144q0 96 64.5 153.5t157.5 57.5q95 0 155 -56t60 -145q0 -90 -65.5 -149.5t-155.5 -59.5zM527 1477q-47 0 -75 -29.5t-28 -73.5q0 -49 28 -78.5t75 -29.5q45 0 75.5 31.5
t30.5 76.5q0 44 -30 73.5t-76 29.5z" />
    <glyph glyph-name="ae" unicode="&#xe6;" horiz-adv-x="1681" 
d="M924 444q6 -137 85.5 -211.5t219.5 -74.5q164 0 309 98v-193q-144 -88 -367 -88q-261 0 -385 197h-4q-143 -197 -379 -197q-157 0 -246 83t-89 223q0 302 378 329l254 19q0 239 -198 239q-175 0 -334 -112v205q172 88 356 88q233 0 307 -164h5q123 164 340 164
q206 0 324 -130t118 -362v-113h-694zM1389 618q0 120 -56.5 185t-158.5 65q-92 0 -163 -68.5t-87 -181.5h465zM700 457l-172 -13q-132 -10 -183.5 -45.5t-51.5 -107.5q0 -59 46 -96t122 -37q101 0 170 68.5t69 181.5v49z" />
    <glyph glyph-name="ccedilla" unicode="&#xe7;" horiz-adv-x="963" 
d="M881 43q-106 -61 -258 -68v-69q176 -6 176 -156q0 -88 -76 -138t-217 -50h-34q-17 0 -36 2v108q23 -4 66 -4q129 0 129 84q0 70 -117 70h-17q-8 0 -18 -2v166q-185 35 -291 171.5t-106 327.5q0 259 151.5 411.5t401.5 152.5q144 0 246 -52v-219q-111 82 -236 82
q-143 0 -233 -96t-90 -258q0 -159 85.5 -250.5t233.5 -91.5q118 0 240 86v-207z" />
    <glyph glyph-name="egrave" unicode="&#xe8;" horiz-adv-x="1079" 
d="M319 444q8 -143 85 -214.5t223 -71.5q168 0 307 98v-195q-143 -86 -363 -86q-233 0 -361 139.5t-128 387.5q0 252 143 399.5t344 147.5q213 0 330 -131t117 -359v-115h-697zM786 618q0 125 -54.5 187.5t-162.5 62.5q-92 0 -161.5 -68t-88.5 -182h467zM577 1219l-284 325
h223l231 -325h-170z" />
    <glyph glyph-name="eacute" unicode="&#xe9;" horiz-adv-x="1079" 
d="M319 444q8 -143 85 -214.5t223 -71.5q168 0 307 98v-195q-143 -86 -363 -86q-233 0 -361 139.5t-128 387.5q0 252 143 399.5t344 147.5q213 0 330 -131t117 -359v-115h-697zM786 618q0 125 -54.5 187.5t-162.5 62.5q-92 0 -161.5 -68t-88.5 -182h467zM557 1219h-172
l231 325h223z" />
    <glyph glyph-name="ecircumflex" unicode="&#xea;" horiz-adv-x="1079" 
d="M319 444q8 -143 85 -214.5t223 -71.5q168 0 307 98v-195q-143 -86 -363 -86q-233 0 -361 139.5t-128 387.5q0 252 143 399.5t344 147.5q213 0 330 -131t117 -359v-115h-697zM786 618q0 125 -54.5 187.5t-162.5 62.5q-92 0 -161.5 -68t-88.5 -182h467zM723 1219l-164 213
l-164 -213h-150l220 325h196l219 -325h-157z" />
    <glyph glyph-name="edieresis" unicode="&#xeb;" horiz-adv-x="1079" 
d="M319 444q8 -143 85 -214.5t223 -71.5q168 0 307 98v-195q-143 -86 -363 -86q-233 0 -361 139.5t-128 387.5q0 252 143 399.5t344 147.5q213 0 330 -131t117 -359v-115h-697zM786 618q0 125 -54.5 187.5t-162.5 62.5q-92 0 -161.5 -68t-88.5 -182h467zM770 1219
q-53 0 -88 33t-35 83q0 51 35.5 85t87.5 34q54 0 89.5 -34t35.5 -85q0 -49 -35.5 -82.5t-89.5 -33.5zM348 1219q-53 0 -89 33.5t-36 82.5q0 51 36 85t89 34q52 0 87.5 -34t35.5 -85q0 -50 -35 -83t-88 -33z" />
    <glyph glyph-name="igrave" unicode="&#xec;" horiz-adv-x="543" 
d="M156 0v1024h233v-1024h-233zM263 1219l-284 325h223l231 -325h-170z" />
    <glyph glyph-name="iacute" unicode="&#xed;" horiz-adv-x="543" 
d="M156 0v1024h233v-1024h-233zM270 1219h-172l231 325h223z" />
    <glyph glyph-name="icircumflex" unicode="&#xee;" horiz-adv-x="543" 
d="M156 0v1024h233v-1024h-233zM431 1219l-164 213l-164 -213h-150l220 325h196l219 -325h-157z" />
    <glyph glyph-name="idieresis" unicode="&#xef;" horiz-adv-x="543" 
d="M156 0v1024h233v-1024h-233zM482 1219q-53 0 -88 33t-35 83q0 51 35.5 85t87.5 34q54 0 89.5 -34t35.5 -85q0 -49 -35.5 -82.5t-89.5 -33.5zM60 1219q-53 0 -89 33.5t-36 82.5q0 51 36 85t89 34q52 0 87.5 -34t35.5 -85q0 -50 -35 -83t-88 -33z" />
    <glyph glyph-name="eth" unicode="&#xf0;" horiz-adv-x="1169" 
d="M764 971l4 2q-86 153 -193 246l-294 -148l-66 121l260 125q-112 93 -270 199h284q59 -40 156 -115l279 137l67 -117l-241 -116q335 -296 335 -762q0 -247 -138 -406.5t-372 -159.5q-231 0 -362 142t-131 385q0 238 131.5 389t351.5 151q110 0 199 -73zM590 860
q-126 0 -198.5 -93t-72.5 -259q0 -161 72.5 -251.5t196.5 -90.5q117 0 187.5 94t70.5 254q0 346 -256 346z" />
    <glyph glyph-name="ntilde" unicode="&#xf1;" horiz-adv-x="1198" 
d="M836 0v575q0 142 -51.5 213.5t-153.5 71.5q-103 0 -172.5 -78.5t-69.5 -199.5v-582h-231v1024h231v-164h4q112 189 332 189q171 0 256.5 -105t85.5 -315v-629h-231zM964 1497q0 -119 -51 -188.5t-138 -69.5q-70 0 -166 41q-83 39 -121 39q-79 0 -79 -100h-117
q0 120 51.5 189t140.5 69q69 0 154 -45q81 -39 127 -39q80 0 80 104h119z" />
    <glyph glyph-name="ograve" unicode="&#xf2;" horiz-adv-x="1217" 
d="M600 -25q-237 0 -377.5 142t-140.5 383q0 256 145 402.5t398 146.5q240 0 375 -141.5t135 -385.5q0 -249 -144.5 -398t-390.5 -149zM612 860q-135 0 -212.5 -92t-77.5 -260q0 -164 78 -254t214 -90q140 0 210.5 87.5t70.5 262.5q0 170 -75.5 258t-207.5 88zM600 1219
l-284 325h223l231 -325h-170z" />
    <glyph glyph-name="oacute" unicode="&#xf3;" horiz-adv-x="1217" 
d="M600 -25q-237 0 -377.5 142t-140.5 383q0 256 145 402.5t398 146.5q240 0 375 -141.5t135 -385.5q0 -249 -144.5 -398t-390.5 -149zM612 860q-135 0 -212.5 -92t-77.5 -260q0 -164 78 -254t214 -90q140 0 210.5 87.5t70.5 262.5q0 170 -75.5 258t-207.5 88zM617 1219
h-172l231 325h223z" />
    <glyph glyph-name="ocircumflex" unicode="&#xf4;" horiz-adv-x="1217" 
d="M600 -25q-237 0 -377.5 142t-140.5 383q0 256 145 402.5t398 146.5q240 0 375 -141.5t135 -385.5q0 -249 -144.5 -398t-390.5 -149zM612 860q-135 0 -212.5 -92t-77.5 -260q0 -164 78 -254t214 -90q140 0 210.5 87.5t70.5 262.5q0 170 -75.5 258t-207.5 88zM766 1219
l-164 213l-164 -213h-150l220 325h196l219 -325h-157z" />
    <glyph glyph-name="otilde" unicode="&#xf5;" horiz-adv-x="1217" 
d="M600 -25q-237 0 -377.5 142t-140.5 383q0 256 145 402.5t398 146.5q240 0 375 -141.5t135 -385.5q0 -249 -144.5 -398t-390.5 -149zM612 860q-135 0 -212.5 -92t-77.5 -260q0 -164 78 -254t214 -90q140 0 210.5 87.5t70.5 262.5q0 170 -75.5 258t-207.5 88zM947 1497
q0 -119 -51 -188.5t-138 -69.5q-70 0 -166 41q-83 39 -121 39q-79 0 -79 -100h-117q0 120 51.5 189t140.5 69q69 0 154 -45q81 -39 127 -39q80 0 80 104h119z" />
    <glyph glyph-name="odieresis" unicode="&#xf6;" horiz-adv-x="1217" 
d="M600 -25q-237 0 -377.5 142t-140.5 383q0 256 145 402.5t398 146.5q240 0 375 -141.5t135 -385.5q0 -249 -144.5 -398t-390.5 -149zM612 860q-135 0 -212.5 -92t-77.5 -260q0 -164 78 -254t214 -90q140 0 210.5 87.5t70.5 262.5q0 170 -75.5 258t-207.5 88zM819 1219
q-53 0 -88 33t-35 83q0 51 35.5 85t87.5 34q54 0 89.5 -34t35.5 -85q0 -49 -35.5 -82.5t-89.5 -33.5zM397 1219q-53 0 -89 33.5t-36 82.5q0 51 36 85t89 34q52 0 87.5 -34t35.5 -85q0 -50 -35 -83t-88 -33z" />
    <glyph glyph-name="divide" unicode="&#xf7;" horiz-adv-x="1438" 
d="M729 862q-52 0 -89.5 34t-37.5 87q0 57 36 94t91 37q56 0 88.5 -35t32.5 -92q0 -55 -36.5 -90t-84.5 -35zM240 510v168h960v-168h-960zM721 74q-51 0 -88 34.5t-37 86.5q0 54 35.5 92.5t89.5 38.5q56 0 88.5 -37t32.5 -92t-35.5 -89t-85.5 -34z" />
    <glyph glyph-name="oslash" unicode="&#xf8;" horiz-adv-x="1217" 
d="M1030 866q105 -138 105 -338q0 -256 -145 -404.5t-390 -148.5q-190 0 -319 95l-138 -146l-100 92l139 150q-100 139 -100 336q0 260 147.5 403.5t397.5 143.5q181 0 305 -88l153 161l101 -92zM791 811q-71 57 -177 57q-140 0 -220.5 -93.5t-80.5 -266.5q0 -94 33 -172z
M872 696l-450 -477q73 -61 190 -61q293 0 293 356q0 106 -33 182z" />
    <glyph glyph-name="ugrave" unicode="&#xf9;" horiz-adv-x="1198" 
d="M831 0v154h-4q-106 -179 -309 -179q-184 0 -275.5 107t-91.5 321v621h234v-592q0 -134 53 -201t160 -67q104 0 168.5 74t64.5 194v592h233v-1024h-233zM585 1219l-284 325h223l231 -325h-170z" />
    <glyph glyph-name="uacute" unicode="&#xfa;" horiz-adv-x="1198" 
d="M831 0v154h-4q-106 -179 -309 -179q-184 0 -275.5 107t-91.5 321v621h234v-592q0 -134 53 -201t160 -67q104 0 168.5 74t64.5 194v592h233v-1024h-233zM625 1219h-172l231 325h223z" />
    <glyph glyph-name="ucircumflex" unicode="&#xfb;" horiz-adv-x="1198" 
d="M831 0v154h-4q-106 -179 -309 -179q-184 0 -275.5 107t-91.5 321v621h234v-592q0 -134 53 -201t160 -67q104 0 168.5 74t64.5 194v592h233v-1024h-233zM772 1219l-164 213l-164 -213h-150l220 325h196l219 -325h-157z" />
    <glyph glyph-name="udieresis" unicode="&#xfc;" horiz-adv-x="1198" 
d="M831 0v154h-4q-106 -179 -309 -179q-184 0 -275.5 107t-91.5 321v621h234v-592q0 -134 53 -201t160 -67q104 0 168.5 74t64.5 194v592h233v-1024h-233zM809 1219q-53 0 -88 33t-35 83q0 51 35.5 85t87.5 34q54 0 89.5 -34t35.5 -85q0 -49 -35.5 -82.5t-89.5 -33.5z
M387 1219q-53 0 -89 33.5t-36 82.5q0 51 36 85t89 34q52 0 87.5 -34t35.5 -85q0 -50 -35 -83t-88 -33z" />
    <glyph glyph-name="yacute" unicode="&#xfd;" horiz-adv-x="1047" 
d="M596 -123q-70 -179 -170 -268.5t-231 -89.5q-85 0 -142 16v197q58 -25 113 -25q61 0 106 33t74 98l70 162l-410 1024h260l240 -721q11 -33 22 -98h4q5 15 11 42q5 27 14 56l248 721h235zM551 1219h-172l231 325h223z" />
    <glyph glyph-name="thorn" unicode="&#xfe;" horiz-adv-x="1235" 
d="M393 129h-4v-600h-231v1987h231v-656h4q120 189 340 189q198 0 309 -139t111 -371q0 -256 -127 -410t-344 -154q-186 0 -289 154zM387 555v-131q0 -112 71 -186t177 -74q132 0 205 98t73 281q0 148 -68 232.5t-188 84.5t-195 -85.5t-75 -219.5z" />
    <glyph glyph-name="ydieresis" unicode="&#xff;" horiz-adv-x="1047" 
d="M596 -123q-70 -179 -170 -268.5t-231 -89.5q-85 0 -142 16v197q58 -25 113 -25q61 0 106 33t74 98l70 162l-410 1024h260l240 -721q11 -33 22 -98h4q5 15 11 42q5 27 14 56l248 721h235zM737 1219q-53 0 -88 33t-35 83q0 51 35.5 85t87.5 34q54 0 89.5 -34t35.5 -85
q0 -49 -35.5 -82.5t-89.5 -33.5zM315 1219q-53 0 -89 33.5t-36 82.5q0 51 36 85t89 34q52 0 87.5 -34t35.5 -85q0 -50 -35 -83t-88 -33z" />
    <glyph glyph-name="dotlessi" unicode="&#x131;" horiz-adv-x="543" 
d="M156 0v1024h233v-1024h-233z" />
    <glyph glyph-name="Lslash" unicode="&#x141;" horiz-adv-x="1001" 
d="M182 0v514l-170 -100v204l170 101v715h238v-582l303 180v-207l-303 -176v-444h561v-205h-799z" />
    <glyph glyph-name="lslash" unicode="&#x142;" horiz-adv-x="606" 
d="M412 678v-678h-234v528l-155 -102v207l155 102v781h234v-629l159 106v-207z" />
    <glyph glyph-name="OE" unicode="&#x152;" horiz-adv-x="1905" 
d="M1073 0q-29 0 -61 -4q-171 -21 -252 -21q-302 0 -489 201.5t-187 521.5q0 345 191.5 552.5t515.5 207.5q103 0 238 -20q27 -4 48 -4h725v-205h-536v-412h497v-205h-497v-407h569v-205h-762zM1024 1210q-125 37 -248 37q-193 0 -316.5 -149.5t-123.5 -382.5
q0 -232 123.5 -380.5t312.5 -148.5q128 0 252 39v985z" />
    <glyph glyph-name="oe" unicode="&#x153;" horiz-adv-x="1886" 
d="M1126 444q18 -286 308 -286q168 0 307 98v-195q-147 -86 -355 -86q-256 0 -382 205h-5q-137 -205 -407 -205q-229 0 -369.5 142.5t-140.5 380.5q0 258 146 404.5t390 146.5q273 0 394 -197h4q119 197 375 197q200 0 316 -131.5t116 -356.5v-117h-697zM1593 618
q0 116 -56 183t-155 67q-97 0 -168 -70.5t-88 -179.5h467zM820 770.5q-75 89.5 -206 89.5q-136 0 -215.5 -93.5t-79.5 -260.5q0 -165 80 -253.5t213 -88.5q135 0 208 88t73 258q2 171 -73 260.5z" />
    <glyph glyph-name="Scaron" unicode="&#x160;" horiz-adv-x="1044" 
d="M111 59v260q64 -61 168 -101t200 -40q115 0 172.5 44.5t57.5 133.5q0 75 -57 136t-226 151q-161 85 -240.5 181t-79.5 233q0 178 135.5 289.5t350.5 111.5q183 0 311 -55v-250q-128 102 -309 102q-107 0 -170.5 -50t-63.5 -130q0 -77 42 -129.5t208 -140.5
q189 -99 272 -198t83 -228q0 -185 -133 -294.5t-379 -109.5q-88 0 -190 25.5t-152 58.5zM657 1567h-196l-221 325h151l166 -213l162 213h157z" />
    <glyph glyph-name="scaron" unicode="&#x161;" horiz-adv-x="834" 
d="M92 31v221q136 -96 277 -96q83 0 124.5 27.5t41.5 82.5q0 51 -36 83.5t-163 84.5q-148 64 -196 133.5t-48 169.5q0 137 108.5 224.5t282.5 87.5q120 0 230 -43v-209q-110 71 -238 71q-69 0 -109 -31t-40 -79q0 -50 26 -80t154 -82q147 -59 204.5 -130t57.5 -173
q0 -141 -109 -229.5t-299 -88.5q-142 0 -268 56zM512 1219h-196l-221 325h151l166 -213l162 213h157z" />
    <glyph glyph-name="Ydieresis" unicode="&#x178;" horiz-adv-x="1178" 
d="M702 520v-520h-237v514l-465 920h270l289 -598q14 -29 21 -53q6 -24 12 -40h2q10 46 33 91l299 600h252zM801 1567q-53 0 -88 33t-35 83q0 51 35.5 85t87.5 34q54 0 89.5 -34t35.5 -85q0 -49 -35.5 -82.5t-89.5 -33.5zM379 1567q-53 0 -89 33.5t-36 82.5q0 51 36 85
t89 34q52 0 87.5 -34t35.5 -85q0 -50 -35 -83t-88 -33z" />
    <glyph glyph-name="Zcaron" unicode="&#x17d;" horiz-adv-x="1192" 
d="M367 205h776v-205h-1116v98l790 1131h-729v205h1069v-88zM729 1567h-196l-221 325h151l166 -213l162 213h157z" />
    <glyph glyph-name="zcaron" unicode="&#x17e;" horiz-adv-x="938" 
d="M350 186h549v-186h-876v82l557 756h-498v186h815v-88zM604 1219h-196l-221 325h151l166 -213l162 213h157z" />
    <glyph glyph-name="florin" unicode="&#x192;" 
d="M993 1214q-61 35 -127 35q-60 0 -101 -37.5t-50 -103.5l-27 -178h160v-180h-189l-88 -615q-28 -194 -127.5 -308t-255.5 -114q-28 0 -104 19v192q39 -22 92 -22q134 0 172 252l86 596h-102v180h131l26 192q19 142 117.5 229t247.5 87q78 0 139 -23v-201z" />
    <glyph glyph-name="circumflex" unicode="&#x2c6;" horiz-adv-x="766" 
d="M539 1219l-164 213l-164 -213h-150l220 325h196l219 -325h-157z" />
    <glyph glyph-name="caron" unicode="&#x2c7;" horiz-adv-x="766" 
d="M483 1219h-196l-221 325h151l166 -213l162 213h157z" />
    <glyph glyph-name="macron" unicode="&#x2c9;" horiz-adv-x="653" 
d="M57 1219v135h535v-135h-535z" />
    <glyph glyph-name="breve" unicode="&#x2d8;" horiz-adv-x="655" 
d="M625 1493q-11 -126 -95 -200t-206 -74q-124 0 -206 74t-87 200h131q15 -147 166 -147q141 0 164 147h133z" />
    <glyph glyph-name="dotaccent" unicode="&#x2d9;" horiz-adv-x="461" 
d="M231 1219q-49 0 -85.5 34t-36.5 82q0 49 34.5 83t87.5 34q50 0 86.5 -33.5t36.5 -83.5q0 -48 -36.5 -82t-86.5 -34z" />
    <glyph glyph-name="ring" unicode="&#x2da;" horiz-adv-x="563" 
d="M279 1167q-90 0 -153 55t-63 144q0 96 64.5 153.5t157.5 57.5q95 0 155 -56t60 -145q0 -90 -65.5 -149.5t-155.5 -59.5zM279 1477q-47 0 -75 -29.5t-28 -73.5q0 -49 28 -78.5t75 -29.5q45 0 75.5 31.5t30.5 76.5q0 44 -30 73.5t-76 29.5z" />
    <glyph glyph-name="ogonek" unicode="&#x2db;" horiz-adv-x="438" 
d="M381 0q-133 -139 -133 -211q0 -63 61 -63q29 0 51 12v-129q-31 -12 -92 -12q-83 0 -132.5 39.5t-49.5 113.5q0 120 154 250h141z" />
    <glyph glyph-name="tilde" unicode="&#x2dc;" horiz-adv-x="735" 
d="M705 1497q0 -119 -51 -188.5t-138 -69.5q-70 0 -166 41q-83 39 -121 39q-79 0 -79 -100h-117q0 120 51.5 189t140.5 69q69 0 154 -45q81 -39 127 -39q80 0 80 104h119z" />
    <glyph glyph-name="hungarumlaut" unicode="&#x2dd;" horiz-adv-x="727" 
d="M481 1219h-139l209 317h178zM190 1219h-137l207 317h172z" />
    <glyph glyph-name="Delta" unicode="&#x394;" horiz-adv-x="1380" 
d="M45 0v96l514 1338h260l520 -1338v-96h-1294zM727 1085q-36 97 -41 132h-4q-9 -51 -37 -136l-317 -878h723z" />
    <glyph glyph-name="Delta" unicode="&#x2206;" horiz-adv-x="1380" 
d="M45 0v96l514 1338h260l520 -1338v-96h-1294zM727 1085q-36 97 -41 132h-4q-9 -51 -37 -136l-317 -878h723z" />
    <glyph glyph-name="Omega" unicode="&#x3a9;" horiz-adv-x="1552" 
d="M903 0v201q309 233 309 583q0 217 -124 342t-310 125q-191 0 -314.5 -125t-123.5 -346q0 -347 309 -579v-201h-557v201h342q-342 213 -342 600q0 305 188.5 481t493.5 176q309 0 497.5 -176.5t188.5 -480.5q0 -385 -346 -600h346v-201h-557z" />
    <glyph glyph-name="Omega" unicode="&#x2126;" horiz-adv-x="1552" 
d="M903 0v201q309 233 309 583q0 217 -124 342t-310 125q-191 0 -314.5 -125t-123.5 -346q0 -347 309 -579v-201h-557v201h342q-342 213 -342 600q0 305 188.5 481t493.5 176q309 0 497.5 -176.5t188.5 -480.5q0 -385 -346 -600h346v-201h-557z" />
    <glyph glyph-name="pi" unicode="&#x3c0;" horiz-adv-x="1325" 
d="M1040 846v-533q0 -131 88 -131q40 0 97 23v-191q-77 -28 -150 -28q-270 0 -270 305v555h-320v-551q0 -208 -36 -295h-240q43 94 43 301v545q-116 -4 -244 -94v198q77 74 248 74h1010v-178h-226z" />
    <glyph glyph-name="endash" unicode="&#x2013;" horiz-adv-x="1024" 
d="M0 469v170h1024v-170h-1024z" />
    <glyph glyph-name="emdash" unicode="&#x2014;" horiz-adv-x="2048" 
d="M0 469v170h2048v-170h-2048z" />
    <glyph glyph-name="quoteleft" unicode="&#x2018;" horiz-adv-x="518" 
d="M303 1024h-201l150 444h158z" />
    <glyph glyph-name="quoteright" unicode="&#x2019;" horiz-adv-x="518" 
d="M264 1024h-153l106 444h201z" />
    <glyph glyph-name="quotesinglbase" unicode="&#x201a;" horiz-adv-x="518" 
d="M246 -227h-154l107 444h200z" />
    <glyph glyph-name="quotedblleft" unicode="&#x201c;" horiz-adv-x="874" 
d="M657 1024h-200l153 444h156zM303 1024h-201l150 444h158z" />
    <glyph glyph-name="quotedblright" unicode="&#x201d;" horiz-adv-x="874" 
d="M623 1024h-158l106 444h203zM264 1024h-153l106 444h201z" />
    <glyph glyph-name="quotedblbase" unicode="&#x201e;" horiz-adv-x="874" 
d="M604 -227h-158l107 444h203zM246 -227h-154l107 444h200z" />
    <glyph glyph-name="dagger" unicode="&#x2020;" horiz-adv-x="791" 
d="M475 979v-737h-164v737h-248v139h248v316h164v-316h248v-139h-248z" />
    <glyph glyph-name="daggerdbl" unicode="&#x2021;" horiz-adv-x="791" 
d="M475 565v-323h-164v323h-248v137h248v279h-248v139h248v314h164v-314h248v-139h-248v-279h248v-137h-248z" />
    <glyph glyph-name="bullet" unicode="&#x2022;" horiz-adv-x="850" 
d="M426 348q-108 0 -186 77.5t-78 184.5q0 106 77.5 184t186.5 78t185.5 -77.5t76.5 -184.5q0 -108 -77 -185t-185 -77z" />
    <glyph glyph-name="ellipsis" unicode="&#x2026;" horiz-adv-x="1659" 
d="M1382 -20q-59 0 -100 40.5t-41 96.5q0 57 40.5 97t100.5 40q61 0 102.5 -40t41.5 -97q0 -56 -41 -96.5t-103 -40.5zM829 -20q-59 0 -100 41t-41 96q0 57 40.5 97t100.5 40q61 0 102.5 -40t41.5 -97q0 -56 -41 -96.5t-103 -40.5zM276 -20q-59 0 -100 41t-41 96
q0 57 40.5 97t100.5 40q61 0 102.5 -40t41.5 -97q0 -56 -41 -96.5t-103 -40.5z" />
    <glyph glyph-name="perthousand" unicode="&#x2030;" horiz-adv-x="2519" 
d="M410 709q-148 0 -238 96.5t-90 259.5q0 178 95.5 283.5t256.5 105.5q155 0 240.5 -93.5t85.5 -266.5q0 -176 -96.5 -280.5t-253.5 -104.5zM426 1313q-77 0 -124.5 -60t-47.5 -176q0 -109 45 -168t123 -59q77 0 122.5 60t45.5 175q0 109 -44.5 168.5t-119.5 59.5zM483 0
h-188l944 1434h188zM2087 -20q-146 0 -237 96.5t-91 259.5q0 180 96.5 284.5t255.5 104.5q155 0 240.5 -92.5t85.5 -267.5q0 -178 -96.5 -281.5t-253.5 -103.5zM2103 584q-77 0 -124.5 -60t-47.5 -176q0 -107 45.5 -167t122.5 -60q78 0 124 60t46 177q0 110 -46 168t-120 58
zM1296 -20q-145 0 -236 96.5t-91 259.5q0 180 96 284.5t256 104.5q155 0 240.5 -93.5t85.5 -266.5q0 -176 -97 -280.5t-254 -104.5zM1313 584q-78 0 -125 -60t-47 -176q0 -115 47 -171t121 -56q77 0 123.5 60t46.5 177q0 110 -46 168t-120 58z" />
    <glyph glyph-name="guilsinglleft" unicode="&#x2039;" horiz-adv-x="672" 
d="M385 201l-315 336l315 344h215l-319 -344l321 -336h-217z" />
    <glyph glyph-name="guilsinglright" unicode="&#x203a;" horiz-adv-x="672" 
d="M285 201h-215l319 336l-319 344h215l317 -344z" />
    <glyph glyph-name="uni2044" unicode="&#x2044;" horiz-adv-x="504" 
d="M-78 0h-188l866 1434h188z" />
    <glyph glyph-name="uni2044" unicode="&#x2215;" horiz-adv-x="504" 
d="M-78 0h-188l866 1434h188z" />
    <glyph glyph-name="Euro" unicode="&#x20ac;" 
d="M1055 47q-137 -72 -291 -72q-448 0 -539 492h-114v174h96q-2 9 -2 28v36q0 58 4 90h-98v172h125q60 236 205.5 363.5t357.5 127.5q143 0 256 -57v-211q-115 84 -260 84q-111 0 -201.5 -84t-130.5 -223h461v-172h-490q-2 -19 -2 -154h492v-174h-469q79 -307 325 -307
q143 0 275 86v-199z" />
    <glyph glyph-name="trademark" unicode="&#x2122;" horiz-adv-x="1581" 
d="M1274 772v451h-4l-199 -451h-82l-190 451h-4v-451h-123v662h159l203 -467h4l209 467h154v-662h-127zM403 1321v-549h-135v549h-190v113h518v-113h-193z" />
    <glyph glyph-name="partialdiff" unicode="&#x2202;" horiz-adv-x="1133" 
d="M846 889h4v39q0 377 -254 377q-120 0 -254 -76l49 201q136 65 268 65q208 0 311 -133.5t103 -446.5q0 -397 -152 -668.5t-452 -271.5q-180 0 -288.5 111.5t-108.5 300.5q0 269 146.5 460t369.5 191q169 0 258 -149zM827 674q-55 182 -196 182q-135 0 -229.5 -138.5
t-94.5 -320.5q0 -106 49.5 -169.5t132.5 -63.5q129 0 222 138.5t116 371.5z" />
    <glyph glyph-name="product" unicode="&#x220f;" horiz-adv-x="1573" 
d="M1167 -469v1688h-747v-1688h-238v1903h1225v-1903h-240z" />
    <glyph glyph-name="summation" unicode="&#x2211;" horiz-adv-x="1282" 
d="M55 -469v121l641 840l-614 808v134h1114v-209h-776l557 -727l-586 -766h836v-201h-1172z" />
    <glyph glyph-name="minus" unicode="&#x2212;" horiz-adv-x="1438" 
d="M240 510v168h960v-168h-960z" />
    <glyph glyph-name="radical" unicode="&#x221a;" horiz-adv-x="1331" 
d="M752 -2h-150l-319 747h-174v138h303l260 -619l325 1252h154z" />
    <glyph glyph-name="infinity" unicode="&#x221e;" horiz-adv-x="1669" 
d="M836 457q-166 -256 -379 -256q-169 0 -275 108.5t-106 284.5q0 162 110.5 279.5t270.5 117.5q234 0 381 -258q158 254 379 254q168 0 274 -109t106 -284q0 -162 -110.5 -279.5t-272.5 -117.5q-226 0 -378 260zM752 598q-118 229 -285 229q-97 0 -156 -66.5t-59 -166.5
q0 -98 60.5 -161.5t154.5 -63.5q158 0 285 229zM922 592q117 -227 284 -227q96 0 154.5 63.5t58.5 167.5q0 97 -60 162t-153 65q-157 0 -284 -231z" />
    <glyph glyph-name="integral" unicode="&#x222b;" 
d="M958 1327q-56 25 -110 25q-160 0 -160 -191v-1280q0 -161 -103 -262.5t-266 -101.5q-83 0 -135 18v195q55 -25 113 -25q160 0 160 191v1278q0 166 104 266t262 100q85 0 135 -18v-195z" />
    <glyph glyph-name="approxequal" unicode="&#x2248;" horiz-adv-x="1438" 
d="M1245 987q-7 -161 -87.5 -253.5t-217.5 -92.5q-65 0 -116.5 20t-164.5 89q-89 61 -153 61q-130 0 -139 -174h-172q7 164 88 255t217 91q72 0 124 -21.5t185 -103.5q76 -47 133 -47q56 0 92.5 48t36.5 128h174zM1245 557q-7 -161 -87.5 -253.5t-217.5 -92.5
q-64 0 -117.5 20.5t-163.5 87.5q-90 62 -153 62q-129 0 -139 -176h-172q7 166 88 257t217 91q72 0 124 -21.5t185 -103.5q76 -47 133 -47q56 0 92.5 48t36.5 128h174z" />
    <glyph glyph-name="notequal" unicode="&#x2260;" horiz-adv-x="1438" 
d="M649 289l-149 -289h-187l148 289h-221v170h309l139 270h-448v170h536l150 289h188l-149 -289h235v-170h-323l-140 -270h463v-170h-551z" />
    <glyph glyph-name="lessequal" unicode="&#x2264;" horiz-adv-x="1438" 
d="M274 651v107l891 465v-193l-641 -319v-4l641 -287v-195zM240 0v170h960v-170h-960z" />
    <glyph glyph-name="greaterequal" unicode="&#x2265;" horiz-adv-x="1438" 
d="M274 225v195l641 282v7l-641 321v193l891 -465v-107zM240 0v170h960v-170h-960z" />
    <glyph glyph-name="lozenge" unicode="&#x25ca;" horiz-adv-x="1214" 
d="M653 0h-94l-459 715l459 719h94l461 -717zM606 1245l-332 -528l332 -531l334 531z" />
    <glyph glyph-name="fi" unicode="&#xfb01;" horiz-adv-x="1255" 
d="M731 1327q-56 25 -110 25q-160 0 -160 -191v-137h229v-186h-229v-838h-234v838h-172v186h172v150q0 164 104 265t265 101q83 0 135 -18v-195zM987 1253q-60 0 -100.5 38.5t-40.5 94.5q0 57 40.5 96.5t100.5 39.5q61 0 101 -40t40 -96q0 -55 -40 -94t-101 -39zM868 0v1024
h232v-1024h-232z" />
    <glyph glyph-name="fl" unicode="&#xfb02;" horiz-adv-x="1255" 
d="M731 1327q-56 25 -110 25q-160 0 -160 -191v-137h229v-186h-229v-838h-234v838h-172v186h172v150q0 164 104 265t265 101q83 0 135 -18v-195zM868 0v1516h232v-1516h-232z" />
    <glyph glyph-name="glyph248" horiz-adv-x="782" 
d="M613 777v-193h-170v193h-395v114l360 543h205v-524h113v-133h-113zM443 1291q-11 -30 -37 -72l-194 -309h231v292q0 49 4 89h-4z" />
    </font>
</defs>
</svg>
